<mxfile host="Electron" modified="2024-05-20T10:25:19.805Z" agent="Mozilla/5.0 (Windows NT 10.0; Win64; x64) AppleWebKit/537.36 (KHTML, like Gecko) draw.io/22.0.2 Chrome/114.0.5735.289 Electron/25.8.4 Safari/537.36" etag="Bt-vhF791YYujyLtryUQ" version="22.0.2" type="device">
  <diagram name="Copy of Page-1" id="SG1n7jbUNAIGO0vn6a7n">
    <mxGraphModel dx="-194" dy="1168" grid="1" gridSize="10" guides="1" tooltips="1" connect="1" arrows="1" fold="1" page="1" pageScale="1" pageWidth="1654" pageHeight="1169" math="0" shadow="0">
      <root>
        <mxCell id="VXFz6mvKQ9PJlcC3uVo2-0" />
        <mxCell id="VXFz6mvKQ9PJlcC3uVo2-1" parent="VXFz6mvKQ9PJlcC3uVo2-0" />
        <UserObject label="&lt;font color=&quot;#999999&quot;&gt;L1_&lt;/font&gt;RC filters" id="VXFz6mvKQ9PJlcC3uVo2-2">
          <mxCell style="ellipse;whiteSpace=wrap;html=1;" parent="VXFz6mvKQ9PJlcC3uVo2-1" vertex="1">
            <mxGeometry x="1722.5" y="172" width="85" height="30" as="geometry" />
          </mxCell>
        </UserObject>
        <mxCell id="VXFz6mvKQ9PJlcC3uVo2-3" value="Leerdoelenkaart S3" style="text;html=1;strokeColor=none;fillColor=none;align=center;verticalAlign=middle;whiteSpace=wrap;rounded=0;fontSize=25;fontStyle=0" parent="VXFz6mvKQ9PJlcC3uVo2-1" vertex="1">
          <mxGeometry x="1693.75" y="52" width="277.5" height="70" as="geometry" />
        </mxCell>
        <UserObject label="&lt;font color=&quot;#999999&quot;&gt;L3_&lt;/font&gt;AC / DC" id="VXFz6mvKQ9PJlcC3uVo2-4">
          <mxCell style="ellipse;whiteSpace=wrap;html=1;" parent="VXFz6mvKQ9PJlcC3uVo2-1" vertex="1">
            <mxGeometry x="1720" y="210" width="75" height="32" as="geometry" />
          </mxCell>
        </UserObject>
        <UserObject label="&lt;font color=&quot;#999999&quot;&gt;L4_&lt;/font&gt;Opamp versterker-trappen" id="VXFz6mvKQ9PJlcC3uVo2-5">
          <mxCell style="ellipse;whiteSpace=wrap;html=1;" parent="VXFz6mvKQ9PJlcC3uVo2-1" vertex="1">
            <mxGeometry x="1710" y="249" width="110" height="50" as="geometry" />
          </mxCell>
        </UserObject>
        <mxCell id="VXFz6mvKQ9PJlcC3uVo2-6" style="rounded=0;orthogonalLoop=1;jettySize=auto;html=1;endArrow=none;endFill=0;" parent="VXFz6mvKQ9PJlcC3uVo2-1" source="VXFz6mvKQ9PJlcC3uVo2-7" target="VXFz6mvKQ9PJlcC3uVo2-8" edge="1">
          <mxGeometry relative="1" as="geometry">
            <Array as="points">
              <mxPoint x="1895" y="202" />
            </Array>
          </mxGeometry>
        </mxCell>
        <UserObject label="&lt;font color=&quot;#999999&quot;&gt;L2_&lt;/font&gt;Signalen in het&amp;nbsp;&lt;br&gt;frequentiedomein" id="VXFz6mvKQ9PJlcC3uVo2-7">
          <mxCell style="ellipse;whiteSpace=wrap;html=1;" parent="VXFz6mvKQ9PJlcC3uVo2-1" vertex="1">
            <mxGeometry x="1805" y="140" width="160" height="42" as="geometry" />
          </mxCell>
        </UserObject>
        <mxCell id="VXFz6mvKQ9PJlcC3uVo2-8" value="Analoge Signaalprocessing" style="ellipse;whiteSpace=wrap;html=1;strokeWidth=2;" parent="VXFz6mvKQ9PJlcC3uVo2-1" vertex="1">
          <mxGeometry x="1840" y="212" width="125" height="50" as="geometry" />
        </mxCell>
        <mxCell id="VXFz6mvKQ9PJlcC3uVo2-9" style="rounded=0;orthogonalLoop=1;jettySize=auto;html=1;endArrow=none;endFill=0;" parent="VXFz6mvKQ9PJlcC3uVo2-1" source="VXFz6mvKQ9PJlcC3uVo2-2" target="VXFz6mvKQ9PJlcC3uVo2-8" edge="1">
          <mxGeometry relative="1" as="geometry">
            <mxPoint x="1899" y="192" as="sourcePoint" />
            <mxPoint x="1908" y="232" as="targetPoint" />
          </mxGeometry>
        </mxCell>
        <mxCell id="VXFz6mvKQ9PJlcC3uVo2-10" style="rounded=0;orthogonalLoop=1;jettySize=auto;html=1;endArrow=none;endFill=0;" parent="VXFz6mvKQ9PJlcC3uVo2-1" source="VXFz6mvKQ9PJlcC3uVo2-4" target="VXFz6mvKQ9PJlcC3uVo2-8" edge="1">
          <mxGeometry relative="1" as="geometry">
            <mxPoint x="1807" y="207" as="sourcePoint" />
            <mxPoint x="1872" y="238" as="targetPoint" />
          </mxGeometry>
        </mxCell>
        <mxCell id="VXFz6mvKQ9PJlcC3uVo2-11" style="rounded=0;orthogonalLoop=1;jettySize=auto;html=1;endArrow=none;endFill=0;" parent="VXFz6mvKQ9PJlcC3uVo2-1" source="VXFz6mvKQ9PJlcC3uVo2-5" target="VXFz6mvKQ9PJlcC3uVo2-8" edge="1">
          <mxGeometry relative="1" as="geometry">
            <mxPoint x="1804" y="241" as="sourcePoint" />
            <mxPoint x="1854" y="248" as="targetPoint" />
          </mxGeometry>
        </mxCell>
        <mxCell id="VXFz6mvKQ9PJlcC3uVo2-12" value="Digitale Signaalprocessing" style="ellipse;whiteSpace=wrap;html=1;strokeWidth=2;" parent="VXFz6mvKQ9PJlcC3uVo2-1" vertex="1">
          <mxGeometry x="1985" y="192" width="125" height="50" as="geometry" />
        </mxCell>
        <mxCell id="VXFz6mvKQ9PJlcC3uVo2-13" style="rounded=0;orthogonalLoop=1;jettySize=auto;html=1;endArrow=none;endFill=0;" parent="VXFz6mvKQ9PJlcC3uVo2-1" source="VXFz6mvKQ9PJlcC3uVo2-7" target="VXFz6mvKQ9PJlcC3uVo2-12" edge="1">
          <mxGeometry relative="1" as="geometry">
            <mxPoint x="1900" y="192" as="sourcePoint" />
            <mxPoint x="1908" y="222" as="targetPoint" />
          </mxGeometry>
        </mxCell>
        <UserObject label="&lt;font color=&quot;#999999&quot;&gt;L5_&lt;/font&gt;FIR filter" id="VXFz6mvKQ9PJlcC3uVo2-14">
          <mxCell style="ellipse;whiteSpace=wrap;html=1;" parent="VXFz6mvKQ9PJlcC3uVo2-1" vertex="1">
            <mxGeometry x="1980" y="122" width="80" height="30" as="geometry" />
          </mxCell>
        </UserObject>
        <UserObject label="&lt;font color=&quot;#999999&quot;&gt;L6_&lt;/font&gt;Median Filter" id="VXFz6mvKQ9PJlcC3uVo2-15">
          <mxCell style="ellipse;whiteSpace=wrap;html=1;" parent="VXFz6mvKQ9PJlcC3uVo2-1" vertex="1">
            <mxGeometry x="2067.5" y="140" width="72.5" height="42" as="geometry" />
          </mxCell>
        </UserObject>
        <mxCell id="VXFz6mvKQ9PJlcC3uVo2-16" style="rounded=0;orthogonalLoop=1;jettySize=auto;html=1;endArrow=none;endFill=0;" parent="VXFz6mvKQ9PJlcC3uVo2-1" source="VXFz6mvKQ9PJlcC3uVo2-14" target="VXFz6mvKQ9PJlcC3uVo2-12" edge="1">
          <mxGeometry relative="1" as="geometry">
            <mxPoint x="1943" y="188" as="sourcePoint" />
            <mxPoint x="2010" y="211" as="targetPoint" />
          </mxGeometry>
        </mxCell>
        <mxCell id="VXFz6mvKQ9PJlcC3uVo2-17" style="rounded=0;orthogonalLoop=1;jettySize=auto;html=1;endArrow=none;endFill=0;" parent="VXFz6mvKQ9PJlcC3uVo2-1" source="VXFz6mvKQ9PJlcC3uVo2-15" target="VXFz6mvKQ9PJlcC3uVo2-12" edge="1">
          <mxGeometry relative="1" as="geometry">
            <mxPoint x="2047" y="162" as="sourcePoint" />
            <mxPoint x="2054" y="202" as="targetPoint" />
          </mxGeometry>
        </mxCell>
        <UserObject label="&lt;font color=&quot;#999999&quot;&gt;L7_&lt;/font&gt;PID regeling" id="VXFz6mvKQ9PJlcC3uVo2-18">
          <mxCell style="ellipse;whiteSpace=wrap;html=1;" parent="VXFz6mvKQ9PJlcC3uVo2-1" vertex="1">
            <mxGeometry x="2010" y="262" width="77.5" height="48" as="geometry" />
          </mxCell>
        </UserObject>
        <mxCell id="VXFz6mvKQ9PJlcC3uVo2-19" style="rounded=0;orthogonalLoop=1;jettySize=auto;html=1;endArrow=none;endFill=0;" parent="VXFz6mvKQ9PJlcC3uVo2-1" source="VXFz6mvKQ9PJlcC3uVo2-12" target="VXFz6mvKQ9PJlcC3uVo2-18" edge="1">
          <mxGeometry relative="1" as="geometry">
            <mxPoint x="2047" y="162" as="sourcePoint" />
            <mxPoint x="2054" y="202" as="targetPoint" />
          </mxGeometry>
        </mxCell>
        <mxCell id="VXFz6mvKQ9PJlcC3uVo2-20" value="Requirements" style="ellipse;whiteSpace=wrap;html=1;strokeWidth=2;" parent="VXFz6mvKQ9PJlcC3uVo2-1" vertex="1">
          <mxGeometry x="1867.5" y="390" width="92.5" height="50" as="geometry" />
        </mxCell>
        <UserObject label="&lt;font color=&quot;#999999&quot;&gt;L19_&lt;/font&gt;UC diagram,&lt;br&gt;UC beschrijving" id="VXFz6mvKQ9PJlcC3uVo2-21">
          <mxCell style="ellipse;whiteSpace=wrap;html=1;dashed=1;dashPattern=1 1;" parent="VXFz6mvKQ9PJlcC3uVo2-1" vertex="1">
            <mxGeometry x="1700" y="431" width="105" height="64" as="geometry" />
          </mxCell>
        </UserObject>
        <UserObject label="&lt;font color=&quot;#999999&quot;&gt;L17_&lt;/font&gt;Functionele Requirements" id="VXFz6mvKQ9PJlcC3uVo2-22">
          <mxCell style="ellipse;whiteSpace=wrap;html=1;dashed=1;dashPattern=1 1;" parent="VXFz6mvKQ9PJlcC3uVo2-1" vertex="1">
            <mxGeometry x="1780" y="310" width="105" height="42" as="geometry" />
          </mxCell>
        </UserObject>
        <UserObject label="&lt;font color=&quot;#999999&quot;&gt;L16_&lt;/font&gt;Non-functionele Requirements" id="VXFz6mvKQ9PJlcC3uVo2-23">
          <mxCell style="ellipse;whiteSpace=wrap;html=1;dashed=1;dashPattern=1 1;" parent="VXFz6mvKQ9PJlcC3uVo2-1" vertex="1">
            <mxGeometry x="1700" y="361" width="90" height="50" as="geometry" />
          </mxCell>
        </UserObject>
        <UserObject label="&lt;font color=&quot;#999999&quot;&gt;L23_&lt;/font&gt;Klassediagram" id="VXFz6mvKQ9PJlcC3uVo2-24">
          <mxCell style="ellipse;whiteSpace=wrap;html=1;" parent="VXFz6mvKQ9PJlcC3uVo2-1" vertex="1">
            <mxGeometry x="2022.88" y="546.5" width="118.75" height="66.5" as="geometry" />
          </mxCell>
        </UserObject>
        <UserObject label="&lt;font color=&quot;#999999&quot;&gt;L22_&lt;/font&gt;Object Model" id="VXFz6mvKQ9PJlcC3uVo2-25">
          <mxCell style="ellipse;whiteSpace=wrap;html=1;" parent="VXFz6mvKQ9PJlcC3uVo2-1" vertex="1">
            <mxGeometry x="1811" y="527.5" width="131.88" height="84.5" as="geometry" />
          </mxCell>
        </UserObject>
        <UserObject label="&lt;font color=&quot;#999999&quot;&gt;L20_&lt;/font&gt;Activity Diagram" id="VXFz6mvKQ9PJlcC3uVo2-26">
          <mxCell style="ellipse;whiteSpace=wrap;html=1;dashed=1;dashPattern=1 1;" parent="VXFz6mvKQ9PJlcC3uVo2-1" vertex="1">
            <mxGeometry x="1840" y="468" width="105" height="41" as="geometry" />
          </mxCell>
        </UserObject>
        <mxCell id="VXFz6mvKQ9PJlcC3uVo2-27" style="rounded=0;orthogonalLoop=1;jettySize=auto;html=1;endArrow=none;endFill=0;" parent="VXFz6mvKQ9PJlcC3uVo2-1" source="VXFz6mvKQ9PJlcC3uVo2-21" target="VXFz6mvKQ9PJlcC3uVo2-22" edge="1">
          <mxGeometry relative="1" as="geometry">
            <mxPoint x="1822" y="283" as="sourcePoint" />
            <mxPoint x="1868" y="265" as="targetPoint" />
          </mxGeometry>
        </mxCell>
        <mxCell id="VXFz6mvKQ9PJlcC3uVo2-28" style="rounded=0;orthogonalLoop=1;jettySize=auto;html=1;endArrow=none;endFill=0;" parent="VXFz6mvKQ9PJlcC3uVo2-1" source="VXFz6mvKQ9PJlcC3uVo2-26" target="VXFz6mvKQ9PJlcC3uVo2-21" edge="1">
          <mxGeometry relative="1" as="geometry">
            <mxPoint x="1815" y="378" as="sourcePoint" />
            <mxPoint x="1834" y="366" as="targetPoint" />
          </mxGeometry>
        </mxCell>
        <mxCell id="VXFz6mvKQ9PJlcC3uVo2-29" style="orthogonalLoop=1;jettySize=auto;html=1;endArrow=none;endFill=0;curved=1;" parent="VXFz6mvKQ9PJlcC3uVo2-1" source="VXFz6mvKQ9PJlcC3uVo2-26" target="VXFz6mvKQ9PJlcC3uVo2-22" edge="1">
          <mxGeometry relative="1" as="geometry">
            <mxPoint x="1793" y="442" as="sourcePoint" />
            <mxPoint x="1789" y="422" as="targetPoint" />
            <Array as="points">
              <mxPoint x="1840" y="402" />
            </Array>
          </mxGeometry>
        </mxCell>
        <mxCell id="VXFz6mvKQ9PJlcC3uVo2-30" style="rounded=0;orthogonalLoop=1;jettySize=auto;html=1;endArrow=none;endFill=0;" parent="VXFz6mvKQ9PJlcC3uVo2-1" source="VXFz6mvKQ9PJlcC3uVo2-25" target="VXFz6mvKQ9PJlcC3uVo2-26" edge="1">
          <mxGeometry relative="1" as="geometry">
            <mxPoint x="1811" y="443" as="sourcePoint" />
            <mxPoint x="1851" y="371" as="targetPoint" />
          </mxGeometry>
        </mxCell>
        <mxCell id="VXFz6mvKQ9PJlcC3uVo2-31" style="orthogonalLoop=1;jettySize=auto;html=1;endArrow=none;endFill=0;curved=1;" parent="VXFz6mvKQ9PJlcC3uVo2-1" source="VXFz6mvKQ9PJlcC3uVo2-25" target="VXFz6mvKQ9PJlcC3uVo2-21" edge="1">
          <mxGeometry relative="1" as="geometry">
            <mxPoint x="1811" y="443" as="sourcePoint" />
            <mxPoint x="1851" y="371" as="targetPoint" />
            <Array as="points">
              <mxPoint x="1740" y="570" />
            </Array>
          </mxGeometry>
        </mxCell>
        <mxCell id="VXFz6mvKQ9PJlcC3uVo2-32" style="rounded=0;orthogonalLoop=1;jettySize=auto;html=1;endArrow=none;endFill=0;" parent="VXFz6mvKQ9PJlcC3uVo2-1" source="VXFz6mvKQ9PJlcC3uVo2-24" target="VXFz6mvKQ9PJlcC3uVo2-25" edge="1">
          <mxGeometry relative="1" as="geometry">
            <mxPoint x="1837" y="505" as="sourcePoint" />
            <mxPoint x="1821" y="489" as="targetPoint" />
          </mxGeometry>
        </mxCell>
        <mxCell id="VXFz6mvKQ9PJlcC3uVo2-33" style="rounded=0;orthogonalLoop=1;jettySize=auto;html=1;endArrow=none;endFill=0;" parent="VXFz6mvKQ9PJlcC3uVo2-1" source="VXFz6mvKQ9PJlcC3uVo2-131" target="VXFz6mvKQ9PJlcC3uVo2-24" edge="1">
          <mxGeometry relative="1" as="geometry">
            <mxPoint x="2072" y="251" as="sourcePoint" />
            <mxPoint x="2091" y="282" as="targetPoint" />
          </mxGeometry>
        </mxCell>
        <mxCell id="VXFz6mvKQ9PJlcC3uVo2-34" style="rounded=0;orthogonalLoop=1;jettySize=auto;html=1;endArrow=none;endFill=0;" parent="VXFz6mvKQ9PJlcC3uVo2-1" source="VXFz6mvKQ9PJlcC3uVo2-22" target="VXFz6mvKQ9PJlcC3uVo2-23" edge="1">
          <mxGeometry relative="1" as="geometry">
            <mxPoint x="1815" y="378" as="sourcePoint" />
            <mxPoint x="1834" y="366" as="targetPoint" />
          </mxGeometry>
        </mxCell>
        <UserObject label="&lt;font color=&quot;#999999&quot;&gt;L33_&lt;/font&gt;STD naar code" id="VXFz6mvKQ9PJlcC3uVo2-35">
          <mxCell style="ellipse;whiteSpace=wrap;html=1;" parent="VXFz6mvKQ9PJlcC3uVo2-1" vertex="1">
            <mxGeometry x="2195.75" y="487.5" width="70" height="40" as="geometry" />
          </mxCell>
        </UserObject>
        <UserObject label="&lt;font color=&quot;#999999&quot;&gt;L32_&lt;/font&gt;STD" id="VXFz6mvKQ9PJlcC3uVo2-36">
          <mxCell style="ellipse;whiteSpace=wrap;html=1;" parent="VXFz6mvKQ9PJlcC3uVo2-1" vertex="1">
            <mxGeometry x="2098.5" y="441.5" width="94.5" height="76.5" as="geometry" />
          </mxCell>
        </UserObject>
        <mxCell id="VXFz6mvKQ9PJlcC3uVo2-37" style="rounded=0;orthogonalLoop=1;jettySize=auto;html=1;endArrow=none;endFill=0;" parent="VXFz6mvKQ9PJlcC3uVo2-1" source="VXFz6mvKQ9PJlcC3uVo2-35" target="VXFz6mvKQ9PJlcC3uVo2-36" edge="1">
          <mxGeometry relative="1" as="geometry">
            <mxPoint x="2206" y="500" as="sourcePoint" />
            <mxPoint x="2167" y="522" as="targetPoint" />
          </mxGeometry>
        </mxCell>
        <mxCell id="VXFz6mvKQ9PJlcC3uVo2-38" style="rounded=0;orthogonalLoop=1;jettySize=auto;html=1;endArrow=none;endFill=0;" parent="VXFz6mvKQ9PJlcC3uVo2-1" source="VXFz6mvKQ9PJlcC3uVo2-131" target="VXFz6mvKQ9PJlcC3uVo2-36" edge="1">
          <mxGeometry relative="1" as="geometry">
            <mxPoint x="2050" y="440" as="sourcePoint" />
            <mxPoint x="2110" y="393" as="targetPoint" />
          </mxGeometry>
        </mxCell>
        <mxCell id="VXFz6mvKQ9PJlcC3uVo2-39" style="rounded=0;orthogonalLoop=1;jettySize=auto;html=1;endArrow=none;endFill=0;" parent="VXFz6mvKQ9PJlcC3uVo2-1" source="VXFz6mvKQ9PJlcC3uVo2-26" target="VXFz6mvKQ9PJlcC3uVo2-20" edge="1">
          <mxGeometry relative="1" as="geometry">
            <mxPoint x="1902" y="518" as="sourcePoint" />
            <mxPoint x="2028" y="489" as="targetPoint" />
          </mxGeometry>
        </mxCell>
        <mxCell id="VXFz6mvKQ9PJlcC3uVo2-40" style="rounded=0;orthogonalLoop=1;jettySize=auto;html=1;endArrow=none;endFill=0;" parent="VXFz6mvKQ9PJlcC3uVo2-1" source="VXFz6mvKQ9PJlcC3uVo2-21" target="VXFz6mvKQ9PJlcC3uVo2-20" edge="1">
          <mxGeometry relative="1" as="geometry">
            <mxPoint x="1850" y="469" as="sourcePoint" />
            <mxPoint x="2020" y="475" as="targetPoint" />
          </mxGeometry>
        </mxCell>
        <mxCell id="VXFz6mvKQ9PJlcC3uVo2-41" style="rounded=0;orthogonalLoop=1;jettySize=auto;html=1;endArrow=none;endFill=0;" parent="VXFz6mvKQ9PJlcC3uVo2-1" source="VXFz6mvKQ9PJlcC3uVo2-22" target="VXFz6mvKQ9PJlcC3uVo2-20" edge="1">
          <mxGeometry relative="1" as="geometry">
            <mxPoint x="1825" y="408" as="sourcePoint" />
            <mxPoint x="2031" y="463" as="targetPoint" />
          </mxGeometry>
        </mxCell>
        <mxCell id="VXFz6mvKQ9PJlcC3uVo2-42" style="rounded=0;orthogonalLoop=1;jettySize=auto;html=1;endArrow=none;endFill=0;" parent="VXFz6mvKQ9PJlcC3uVo2-1" source="VXFz6mvKQ9PJlcC3uVo2-23" target="VXFz6mvKQ9PJlcC3uVo2-20" edge="1">
          <mxGeometry relative="1" as="geometry">
            <mxPoint x="1894" y="365" as="sourcePoint" />
            <mxPoint x="2048" y="456" as="targetPoint" />
          </mxGeometry>
        </mxCell>
        <UserObject label="&lt;font color=&quot;#999999&quot;&gt;L18_&lt;/font&gt;Functionele&lt;br&gt;Decompositie" id="VXFz6mvKQ9PJlcC3uVo2-43">
          <mxCell style="ellipse;whiteSpace=wrap;html=1;" parent="VXFz6mvKQ9PJlcC3uVo2-1" vertex="1">
            <mxGeometry x="1896.5" y="323" width="117.5" height="57" as="geometry" />
          </mxCell>
        </UserObject>
        <mxCell id="VXFz6mvKQ9PJlcC3uVo2-44" style="rounded=0;orthogonalLoop=1;jettySize=auto;html=1;endArrow=none;endFill=0;" parent="VXFz6mvKQ9PJlcC3uVo2-1" source="VXFz6mvKQ9PJlcC3uVo2-132" target="VXFz6mvKQ9PJlcC3uVo2-43" edge="1">
          <mxGeometry relative="1" as="geometry">
            <mxPoint x="2014" y="440" as="sourcePoint" />
            <mxPoint x="2067" y="421" as="targetPoint" />
          </mxGeometry>
        </mxCell>
        <UserObject label="&lt;font color=&quot;#999999&quot;&gt;L36_&lt;/font&gt;FreeRtos" id="VXFz6mvKQ9PJlcC3uVo2-45">
          <mxCell style="ellipse;whiteSpace=wrap;html=1;" parent="VXFz6mvKQ9PJlcC3uVo2-1" vertex="1">
            <mxGeometry x="2283.5" y="492" width="85" height="30" as="geometry" />
          </mxCell>
        </UserObject>
        <mxCell id="VXFz6mvKQ9PJlcC3uVo2-46" style="rounded=0;orthogonalLoop=1;jettySize=auto;html=1;endArrow=none;endFill=0;" parent="VXFz6mvKQ9PJlcC3uVo2-1" source="VXFz6mvKQ9PJlcC3uVo2-45" target="VXFz6mvKQ9PJlcC3uVo2-35" edge="1">
          <mxGeometry relative="1" as="geometry">
            <mxPoint x="2189" y="462" as="sourcePoint" />
            <mxPoint x="2236" y="449" as="targetPoint" />
          </mxGeometry>
        </mxCell>
        <mxCell id="VXFz6mvKQ9PJlcC3uVo2-47" value="Networking, protocollen" style="ellipse;whiteSpace=wrap;html=1;strokeWidth=2;" parent="VXFz6mvKQ9PJlcC3uVo2-1" vertex="1">
          <mxGeometry x="2330" y="523" width="90" height="50" as="geometry" />
        </mxCell>
        <UserObject label="&lt;font color=&quot;#999999&quot;&gt;L38_&lt;/font&gt;ESP32-IDF" id="VXFz6mvKQ9PJlcC3uVo2-48">
          <mxCell style="ellipse;whiteSpace=wrap;html=1;" parent="VXFz6mvKQ9PJlcC3uVo2-1" vertex="1">
            <mxGeometry x="2233" y="548" width="95" height="30" as="geometry" />
          </mxCell>
        </UserObject>
        <mxCell id="VXFz6mvKQ9PJlcC3uVo2-49" style="rounded=0;orthogonalLoop=1;jettySize=auto;html=1;endArrow=none;endFill=0;" parent="VXFz6mvKQ9PJlcC3uVo2-1" source="VXFz6mvKQ9PJlcC3uVo2-48" target="VXFz6mvKQ9PJlcC3uVo2-45" edge="1">
          <mxGeometry relative="1" as="geometry">
            <mxPoint x="2435" y="450" as="sourcePoint" />
            <mxPoint x="2370" y="440" as="targetPoint" />
          </mxGeometry>
        </mxCell>
        <mxCell id="VXFz6mvKQ9PJlcC3uVo2-50" style="rounded=0;orthogonalLoop=1;jettySize=auto;html=1;endArrow=none;endFill=0;" parent="VXFz6mvKQ9PJlcC3uVo2-1" source="VXFz6mvKQ9PJlcC3uVo2-47" target="VXFz6mvKQ9PJlcC3uVo2-48" edge="1">
          <mxGeometry relative="1" as="geometry">
            <mxPoint x="2435" y="450" as="sourcePoint" />
            <mxPoint x="2370" y="440" as="targetPoint" />
          </mxGeometry>
        </mxCell>
        <UserObject label="&lt;font color=&quot;#999999&quot;&gt;L41_&lt;/font&gt;Basics:&lt;br&gt;Mac,IP,WAN,&lt;br&gt;LAN,forwarding,&lt;br&gt;NOIP, static IP,&lt;br&gt;REST" id="VXFz6mvKQ9PJlcC3uVo2-51">
          <mxCell style="ellipse;whiteSpace=wrap;html=1;" parent="VXFz6mvKQ9PJlcC3uVo2-1" vertex="1">
            <mxGeometry x="2270.75" y="578" width="127.5" height="82" as="geometry" />
          </mxCell>
        </UserObject>
        <mxCell id="VXFz6mvKQ9PJlcC3uVo2-52" style="rounded=0;orthogonalLoop=1;jettySize=auto;html=1;endArrow=none;endFill=0;" parent="VXFz6mvKQ9PJlcC3uVo2-1" source="VXFz6mvKQ9PJlcC3uVo2-51" target="VXFz6mvKQ9PJlcC3uVo2-47" edge="1">
          <mxGeometry relative="1" as="geometry">
            <mxPoint x="2357" y="543" as="sourcePoint" />
            <mxPoint x="2330" y="511" as="targetPoint" />
          </mxGeometry>
        </mxCell>
        <UserObject label="&lt;font color=&quot;#999999&quot;&gt;L46_&lt;/font&gt;Zigbee Mesh" id="VXFz6mvKQ9PJlcC3uVo2-53">
          <mxCell style="ellipse;whiteSpace=wrap;html=1;strokeColor=#808080;dashed=1;" parent="VXFz6mvKQ9PJlcC3uVo2-1" vertex="1">
            <mxGeometry x="2400.25" y="617" width="88.75" height="35" as="geometry" />
          </mxCell>
        </UserObject>
        <UserObject label="&lt;font color=&quot;#999999&quot;&gt;L47_&lt;/font&gt;Wifi Mesh" id="VXFz6mvKQ9PJlcC3uVo2-54">
          <mxCell style="ellipse;whiteSpace=wrap;html=1;strokeColor=#808080;dashed=1;" parent="VXFz6mvKQ9PJlcC3uVo2-1" vertex="1">
            <mxGeometry x="2434" y="577" width="74.88" height="35" as="geometry" />
          </mxCell>
        </UserObject>
        <UserObject label="&lt;font color=&quot;#999999&quot;&gt;L48_&lt;/font&gt;Bluetooth Mesh" id="VXFz6mvKQ9PJlcC3uVo2-55">
          <mxCell style="ellipse;whiteSpace=wrap;html=1;strokeColor=#808080;dashed=1;" parent="VXFz6mvKQ9PJlcC3uVo2-1" vertex="1">
            <mxGeometry x="2434.75" y="534" width="96.25" height="35" as="geometry" />
          </mxCell>
        </UserObject>
        <mxCell id="VXFz6mvKQ9PJlcC3uVo2-56" style="rounded=0;orthogonalLoop=1;jettySize=auto;html=1;endArrow=none;endFill=0;entryX=0.5;entryY=0;entryDx=0;entryDy=0;" parent="VXFz6mvKQ9PJlcC3uVo2-1" source="VXFz6mvKQ9PJlcC3uVo2-47" target="VXFz6mvKQ9PJlcC3uVo2-53" edge="1">
          <mxGeometry relative="1" as="geometry">
            <mxPoint x="2243" y="466" as="sourcePoint" />
            <mxPoint x="2324" y="443" as="targetPoint" />
          </mxGeometry>
        </mxCell>
        <mxCell id="VXFz6mvKQ9PJlcC3uVo2-57" style="rounded=0;orthogonalLoop=1;jettySize=auto;html=1;endArrow=none;endFill=0;" parent="VXFz6mvKQ9PJlcC3uVo2-1" source="VXFz6mvKQ9PJlcC3uVo2-47" target="VXFz6mvKQ9PJlcC3uVo2-54" edge="1">
          <mxGeometry relative="1" as="geometry">
            <mxPoint x="2383" y="591" as="sourcePoint" />
            <mxPoint x="2391" y="621" as="targetPoint" />
          </mxGeometry>
        </mxCell>
        <mxCell id="VXFz6mvKQ9PJlcC3uVo2-58" style="rounded=0;orthogonalLoop=1;jettySize=auto;html=1;endArrow=none;endFill=0;" parent="VXFz6mvKQ9PJlcC3uVo2-1" source="VXFz6mvKQ9PJlcC3uVo2-47" target="VXFz6mvKQ9PJlcC3uVo2-55" edge="1">
          <mxGeometry relative="1" as="geometry">
            <mxPoint x="2407" y="584" as="sourcePoint" />
            <mxPoint x="2441" y="606" as="targetPoint" />
          </mxGeometry>
        </mxCell>
        <mxCell id="VXFz6mvKQ9PJlcC3uVo2-59" value="Linux Server" style="ellipse;whiteSpace=wrap;html=1;strokeWidth=2;" parent="VXFz6mvKQ9PJlcC3uVo2-1" vertex="1">
          <mxGeometry x="2516" y="614" width="60" height="40" as="geometry" />
        </mxCell>
        <UserObject label="&lt;font color=&quot;#999999&quot;&gt;L53_&lt;/font&gt;Docker" id="VXFz6mvKQ9PJlcC3uVo2-60">
          <mxCell style="ellipse;whiteSpace=wrap;html=1;" parent="VXFz6mvKQ9PJlcC3uVo2-1" vertex="1">
            <mxGeometry x="2601" y="581" width="75" height="30" as="geometry" />
          </mxCell>
        </UserObject>
        <mxCell id="VXFz6mvKQ9PJlcC3uVo2-61" style="rounded=0;orthogonalLoop=1;jettySize=auto;html=1;endArrow=none;endFill=0;" parent="VXFz6mvKQ9PJlcC3uVo2-1" source="VXFz6mvKQ9PJlcC3uVo2-54" target="VXFz6mvKQ9PJlcC3uVo2-59" edge="1">
          <mxGeometry relative="1" as="geometry">
            <mxPoint x="2407" y="584" as="sourcePoint" />
            <mxPoint x="2441" y="606" as="targetPoint" />
          </mxGeometry>
        </mxCell>
        <UserObject label="&lt;font color=&quot;#999999&quot;&gt;L55_&lt;/font&gt;Flask" id="VXFz6mvKQ9PJlcC3uVo2-62">
          <mxCell style="ellipse;whiteSpace=wrap;html=1;strokeWidth=1;" parent="VXFz6mvKQ9PJlcC3uVo2-1" vertex="1">
            <mxGeometry x="2571" y="527" width="81" height="37" as="geometry" />
          </mxCell>
        </UserObject>
        <UserObject label="&lt;font color=&quot;#999999&quot;&gt;L57_&lt;/font&gt;MongoDB" id="VXFz6mvKQ9PJlcC3uVo2-63">
          <mxCell style="ellipse;whiteSpace=wrap;html=1;strokeWidth=1;" parent="VXFz6mvKQ9PJlcC3uVo2-1" vertex="1">
            <mxGeometry x="2522.68" y="674.5" width="97.5" height="27" as="geometry" />
          </mxCell>
        </UserObject>
        <mxCell id="VXFz6mvKQ9PJlcC3uVo2-64" style="rounded=0;orthogonalLoop=1;jettySize=auto;html=1;endArrow=none;endFill=0;" parent="VXFz6mvKQ9PJlcC3uVo2-1" source="VXFz6mvKQ9PJlcC3uVo2-59" target="VXFz6mvKQ9PJlcC3uVo2-62" edge="1">
          <mxGeometry relative="1" as="geometry">
            <mxPoint x="2421" y="569" as="sourcePoint" />
            <mxPoint x="2451" y="571" as="targetPoint" />
          </mxGeometry>
        </mxCell>
        <mxCell id="VXFz6mvKQ9PJlcC3uVo2-65" style="rounded=0;orthogonalLoop=1;jettySize=auto;html=1;endArrow=none;endFill=0;" parent="VXFz6mvKQ9PJlcC3uVo2-1" source="VXFz6mvKQ9PJlcC3uVo2-62" target="VXFz6mvKQ9PJlcC3uVo2-63" edge="1">
          <mxGeometry relative="1" as="geometry">
            <mxPoint x="2559" y="631" as="sourcePoint" />
            <mxPoint x="2569" y="571" as="targetPoint" />
          </mxGeometry>
        </mxCell>
        <mxCell id="VXFz6mvKQ9PJlcC3uVo2-66" style="rounded=0;orthogonalLoop=1;jettySize=auto;html=1;endArrow=none;endFill=0;" parent="VXFz6mvKQ9PJlcC3uVo2-1" source="VXFz6mvKQ9PJlcC3uVo2-59" target="VXFz6mvKQ9PJlcC3uVo2-63" edge="1">
          <mxGeometry relative="1" as="geometry">
            <mxPoint x="2596" y="559" as="sourcePoint" />
            <mxPoint x="2616" y="559" as="targetPoint" />
          </mxGeometry>
        </mxCell>
        <UserObject label="&lt;font color=&quot;#999999&quot;&gt;L51_&lt;/font&gt;HTML" id="VXFz6mvKQ9PJlcC3uVo2-67">
          <mxCell style="ellipse;whiteSpace=wrap;html=1;strokeWidth=1;" parent="VXFz6mvKQ9PJlcC3uVo2-1" vertex="1">
            <mxGeometry x="2576" y="462.5" width="75" height="25" as="geometry" />
          </mxCell>
        </UserObject>
        <UserObject label="&lt;font color=&quot;#999999&quot;&gt;L52_&lt;/font&gt;CSS" id="VXFz6mvKQ9PJlcC3uVo2-68">
          <mxCell style="ellipse;whiteSpace=wrap;html=1;strokeWidth=1;" parent="VXFz6mvKQ9PJlcC3uVo2-1" vertex="1">
            <mxGeometry x="2631" y="493" width="67.5" height="25" as="geometry" />
          </mxCell>
        </UserObject>
        <UserObject label="&lt;font color=&quot;#999999&quot;&gt;L50_&lt;/font&gt;Javascript" id="VXFz6mvKQ9PJlcC3uVo2-69">
          <mxCell style="ellipse;whiteSpace=wrap;html=1;strokeWidth=1;" parent="VXFz6mvKQ9PJlcC3uVo2-1" vertex="1">
            <mxGeometry x="2502" y="437.5" width="85" height="25" as="geometry" />
          </mxCell>
        </UserObject>
        <mxCell id="VXFz6mvKQ9PJlcC3uVo2-70" style="rounded=0;orthogonalLoop=1;jettySize=auto;html=1;endArrow=none;endFill=0;" parent="VXFz6mvKQ9PJlcC3uVo2-1" source="VXFz6mvKQ9PJlcC3uVo2-63" target="VXFz6mvKQ9PJlcC3uVo2-60" edge="1">
          <mxGeometry relative="1" as="geometry">
            <mxPoint x="2612" y="521" as="sourcePoint" />
            <mxPoint x="2607" y="461" as="targetPoint" />
          </mxGeometry>
        </mxCell>
        <UserObject label="&lt;font color=&quot;#999999&quot;&gt;L54_&lt;/font&gt;composer" id="VXFz6mvKQ9PJlcC3uVo2-71">
          <mxCell style="ellipse;whiteSpace=wrap;html=1;strokeWidth=1;" parent="VXFz6mvKQ9PJlcC3uVo2-1" vertex="1">
            <mxGeometry x="2658" y="551" width="90" height="25" as="geometry" />
          </mxCell>
        </UserObject>
        <mxCell id="VXFz6mvKQ9PJlcC3uVo2-72" style="rounded=0;orthogonalLoop=1;jettySize=auto;html=1;endArrow=none;endFill=0;" parent="VXFz6mvKQ9PJlcC3uVo2-1" source="VXFz6mvKQ9PJlcC3uVo2-60" target="VXFz6mvKQ9PJlcC3uVo2-71" edge="1">
          <mxGeometry relative="1" as="geometry">
            <mxPoint x="2675" y="547" as="sourcePoint" />
            <mxPoint x="2619" y="489" as="targetPoint" />
          </mxGeometry>
        </mxCell>
        <UserObject label="&lt;font color=&quot;#999999&quot;&gt;L24_&lt;/font&gt;Observer Pattern" id="VXFz6mvKQ9PJlcC3uVo2-73">
          <mxCell style="ellipse;whiteSpace=wrap;html=1;" parent="VXFz6mvKQ9PJlcC3uVo2-1" vertex="1">
            <mxGeometry x="1940.88" y="596" width="90" height="40" as="geometry" />
          </mxCell>
        </UserObject>
        <UserObject label="&lt;font color=&quot;#999999&quot;&gt;L25_&lt;/font&gt;Handler&lt;br&gt;Pattern" id="VXFz6mvKQ9PJlcC3uVo2-74">
          <mxCell style="ellipse;whiteSpace=wrap;html=1;" parent="VXFz6mvKQ9PJlcC3uVo2-1" vertex="1">
            <mxGeometry x="1992.5" y="647" width="90" height="40" as="geometry" />
          </mxCell>
        </UserObject>
        <mxCell id="VXFz6mvKQ9PJlcC3uVo2-75" style="rounded=0;orthogonalLoop=1;jettySize=auto;html=1;endArrow=none;endFill=0;" parent="VXFz6mvKQ9PJlcC3uVo2-1" source="VXFz6mvKQ9PJlcC3uVo2-73" target="VXFz6mvKQ9PJlcC3uVo2-24" edge="1">
          <mxGeometry relative="1" as="geometry">
            <mxPoint x="1967" y="447" as="sourcePoint" />
            <mxPoint x="2048" y="424" as="targetPoint" />
          </mxGeometry>
        </mxCell>
        <mxCell id="VXFz6mvKQ9PJlcC3uVo2-76" style="rounded=0;orthogonalLoop=1;jettySize=auto;html=1;endArrow=none;endFill=0;" parent="VXFz6mvKQ9PJlcC3uVo2-1" source="VXFz6mvKQ9PJlcC3uVo2-74" target="VXFz6mvKQ9PJlcC3uVo2-24" edge="1">
          <mxGeometry relative="1" as="geometry">
            <mxPoint x="1869" y="569" as="sourcePoint" />
            <mxPoint x="1946" y="538" as="targetPoint" />
          </mxGeometry>
        </mxCell>
        <mxCell id="VXFz6mvKQ9PJlcC3uVo2-77" style="rounded=0;orthogonalLoop=1;jettySize=auto;html=1;endArrow=none;endFill=0;" parent="VXFz6mvKQ9PJlcC3uVo2-1" source="VXFz6mvKQ9PJlcC3uVo2-62" target="VXFz6mvKQ9PJlcC3uVo2-67" edge="1">
          <mxGeometry relative="1" as="geometry">
            <mxPoint x="2565" y="508" as="sourcePoint" />
            <mxPoint x="2591" y="488" as="targetPoint" />
          </mxGeometry>
        </mxCell>
        <mxCell id="VXFz6mvKQ9PJlcC3uVo2-78" style="rounded=0;orthogonalLoop=1;jettySize=auto;html=1;endArrow=none;endFill=0;" parent="VXFz6mvKQ9PJlcC3uVo2-1" source="VXFz6mvKQ9PJlcC3uVo2-62" target="VXFz6mvKQ9PJlcC3uVo2-68" edge="1">
          <mxGeometry relative="1" as="geometry">
            <mxPoint x="2578" y="568" as="sourcePoint" />
            <mxPoint x="2509" y="509" as="targetPoint" />
          </mxGeometry>
        </mxCell>
        <mxCell id="VXFz6mvKQ9PJlcC3uVo2-79" style="rounded=0;orthogonalLoop=1;jettySize=auto;html=1;endArrow=none;endFill=0;" parent="VXFz6mvKQ9PJlcC3uVo2-1" source="VXFz6mvKQ9PJlcC3uVo2-62" target="VXFz6mvKQ9PJlcC3uVo2-69" edge="1">
          <mxGeometry relative="1" as="geometry">
            <mxPoint x="2585" y="566" as="sourcePoint" />
            <mxPoint x="2562" y="521" as="targetPoint" />
          </mxGeometry>
        </mxCell>
        <UserObject label="&lt;font color=&quot;#999999&quot;&gt;L49_&lt;/font&gt;Webapp&lt;br&gt;Architectuur" id="VXFz6mvKQ9PJlcC3uVo2-80">
          <mxCell style="ellipse;whiteSpace=wrap;html=1;" parent="VXFz6mvKQ9PJlcC3uVo2-1" vertex="1">
            <mxGeometry x="2468.5" y="487" width="90" height="40" as="geometry" />
          </mxCell>
        </UserObject>
        <mxCell id="VXFz6mvKQ9PJlcC3uVo2-81" style="orthogonalLoop=1;jettySize=auto;html=1;endArrow=none;endFill=0;curved=1;" parent="VXFz6mvKQ9PJlcC3uVo2-1" source="VXFz6mvKQ9PJlcC3uVo2-80" target="VXFz6mvKQ9PJlcC3uVo2-132" edge="1">
          <mxGeometry relative="1" as="geometry">
            <mxPoint x="2027" y="369" as="sourcePoint" />
            <mxPoint x="1954" y="437" as="targetPoint" />
            <Array as="points">
              <mxPoint x="2470" y="360" />
              <mxPoint x="2040" y="340" />
            </Array>
          </mxGeometry>
        </mxCell>
        <mxCell id="VXFz6mvKQ9PJlcC3uVo2-82" style="rounded=0;orthogonalLoop=1;jettySize=auto;html=1;endArrow=none;endFill=0;" parent="VXFz6mvKQ9PJlcC3uVo2-1" source="VXFz6mvKQ9PJlcC3uVo2-80" target="VXFz6mvKQ9PJlcC3uVo2-69" edge="1">
          <mxGeometry relative="1" as="geometry">
            <mxPoint x="2588" y="566" as="sourcePoint" />
            <mxPoint x="2567" y="481" as="targetPoint" />
          </mxGeometry>
        </mxCell>
        <mxCell id="VXFz6mvKQ9PJlcC3uVo2-83" style="rounded=0;orthogonalLoop=1;jettySize=auto;html=1;endArrow=none;endFill=0;" parent="VXFz6mvKQ9PJlcC3uVo2-1" source="VXFz6mvKQ9PJlcC3uVo2-80" target="VXFz6mvKQ9PJlcC3uVo2-67" edge="1">
          <mxGeometry relative="1" as="geometry">
            <mxPoint x="2533" y="493" as="sourcePoint" />
            <mxPoint x="2550" y="480" as="targetPoint" />
          </mxGeometry>
        </mxCell>
        <mxCell id="VXFz6mvKQ9PJlcC3uVo2-84" style="rounded=0;orthogonalLoop=1;jettySize=auto;html=1;endArrow=none;endFill=0;" parent="VXFz6mvKQ9PJlcC3uVo2-1" source="VXFz6mvKQ9PJlcC3uVo2-80" target="VXFz6mvKQ9PJlcC3uVo2-68" edge="1">
          <mxGeometry relative="1" as="geometry">
            <mxPoint x="2533" y="493" as="sourcePoint" />
            <mxPoint x="2550" y="480" as="targetPoint" />
          </mxGeometry>
        </mxCell>
        <mxCell id="VXFz6mvKQ9PJlcC3uVo2-85" style="rounded=0;orthogonalLoop=1;jettySize=auto;html=1;endArrow=none;endFill=0;" parent="VXFz6mvKQ9PJlcC3uVo2-1" source="VXFz6mvKQ9PJlcC3uVo2-80" target="VXFz6mvKQ9PJlcC3uVo2-62" edge="1">
          <mxGeometry relative="1" as="geometry">
            <mxPoint x="2548" y="522" as="sourcePoint" />
            <mxPoint x="2599" y="537" as="targetPoint" />
          </mxGeometry>
        </mxCell>
        <UserObject label="&lt;font color=&quot;#999999&quot;&gt;L58_&lt;/font&gt;reverse&lt;br&gt;proxy" id="VXFz6mvKQ9PJlcC3uVo2-86">
          <mxCell style="ellipse;whiteSpace=wrap;html=1;strokeWidth=1;" parent="VXFz6mvKQ9PJlcC3uVo2-1" vertex="1">
            <mxGeometry x="2611" y="630" width="91" height="35" as="geometry" />
          </mxCell>
        </UserObject>
        <mxCell id="VXFz6mvKQ9PJlcC3uVo2-87" style="rounded=0;orthogonalLoop=1;jettySize=auto;html=1;endArrow=none;endFill=0;" parent="VXFz6mvKQ9PJlcC3uVo2-1" source="VXFz6mvKQ9PJlcC3uVo2-86" target="VXFz6mvKQ9PJlcC3uVo2-60" edge="1">
          <mxGeometry relative="1" as="geometry">
            <mxPoint x="2671" y="561" as="sourcePoint" />
            <mxPoint x="2686" y="521" as="targetPoint" />
          </mxGeometry>
        </mxCell>
        <mxCell id="VXFz6mvKQ9PJlcC3uVo2-88" style="rounded=0;orthogonalLoop=1;jettySize=auto;html=1;endArrow=none;endFill=0;" parent="VXFz6mvKQ9PJlcC3uVo2-1" source="VXFz6mvKQ9PJlcC3uVo2-62" target="VXFz6mvKQ9PJlcC3uVo2-60" edge="1">
          <mxGeometry relative="1" as="geometry">
            <mxPoint x="2678" y="586" as="sourcePoint" />
            <mxPoint x="2689" y="521" as="targetPoint" />
          </mxGeometry>
        </mxCell>
        <mxCell id="VXFz6mvKQ9PJlcC3uVo2-89" value="Digitale techniek" style="ellipse;whiteSpace=wrap;html=1;strokeWidth=2;" parent="VXFz6mvKQ9PJlcC3uVo2-1" vertex="1">
          <mxGeometry x="2130" y="202" width="125" height="50" as="geometry" />
        </mxCell>
        <mxCell id="VXFz6mvKQ9PJlcC3uVo2-90" style="rounded=0;orthogonalLoop=1;jettySize=auto;html=1;endArrow=none;endFill=0;" parent="VXFz6mvKQ9PJlcC3uVo2-1" source="VXFz6mvKQ9PJlcC3uVo2-12" target="VXFz6mvKQ9PJlcC3uVo2-89" edge="1">
          <mxGeometry relative="1" as="geometry">
            <mxPoint x="1943" y="188" as="sourcePoint" />
            <mxPoint x="2010" y="211" as="targetPoint" />
          </mxGeometry>
        </mxCell>
        <UserObject label="&lt;font color=&quot;#999999&quot;&gt;L8_&lt;/font&gt;Toestandsdiagram" id="VXFz6mvKQ9PJlcC3uVo2-91">
          <mxCell style="ellipse;whiteSpace=wrap;html=1;" parent="VXFz6mvKQ9PJlcC3uVo2-1" vertex="1">
            <mxGeometry x="2105" y="100" width="125" height="40" as="geometry" />
          </mxCell>
        </UserObject>
        <UserObject label="&lt;font color=&quot;#999999&quot;&gt;L10_&lt;/font&gt;Karnaugh&lt;br&gt;diagram" id="VXFz6mvKQ9PJlcC3uVo2-92">
          <mxCell style="ellipse;whiteSpace=wrap;html=1;" parent="VXFz6mvKQ9PJlcC3uVo2-1" vertex="1">
            <mxGeometry x="2305" y="150" width="115" height="35" as="geometry" />
          </mxCell>
        </UserObject>
        <mxCell id="VXFz6mvKQ9PJlcC3uVo2-93" style="rounded=0;orthogonalLoop=1;jettySize=auto;html=1;endArrow=none;endFill=0;" parent="VXFz6mvKQ9PJlcC3uVo2-1" source="VXFz6mvKQ9PJlcC3uVo2-92" target="VXFz6mvKQ9PJlcC3uVo2-89" edge="1">
          <mxGeometry relative="1" as="geometry">
            <mxPoint x="2099" y="191" as="sourcePoint" />
            <mxPoint x="2083" y="204" as="targetPoint" />
          </mxGeometry>
        </mxCell>
        <mxCell id="VXFz6mvKQ9PJlcC3uVo2-94" style="rounded=0;orthogonalLoop=1;jettySize=auto;html=1;endArrow=none;endFill=0;" parent="VXFz6mvKQ9PJlcC3uVo2-1" source="VXFz6mvKQ9PJlcC3uVo2-91" target="VXFz6mvKQ9PJlcC3uVo2-89" edge="1">
          <mxGeometry relative="1" as="geometry">
            <mxPoint x="2302" y="216" as="sourcePoint" />
            <mxPoint x="2258" y="226" as="targetPoint" />
          </mxGeometry>
        </mxCell>
        <UserObject label="&lt;font color=&quot;#999999&quot;&gt;L9_&lt;/font&gt;Boolse Logica" id="VXFz6mvKQ9PJlcC3uVo2-95">
          <mxCell style="ellipse;whiteSpace=wrap;html=1;" parent="VXFz6mvKQ9PJlcC3uVo2-1" vertex="1">
            <mxGeometry x="2179" y="147" width="115" height="30" as="geometry" />
          </mxCell>
        </UserObject>
        <mxCell id="VXFz6mvKQ9PJlcC3uVo2-96" style="rounded=0;orthogonalLoop=1;jettySize=auto;html=1;endArrow=none;endFill=0;" parent="VXFz6mvKQ9PJlcC3uVo2-1" source="VXFz6mvKQ9PJlcC3uVo2-95" target="VXFz6mvKQ9PJlcC3uVo2-89" edge="1">
          <mxGeometry relative="1" as="geometry">
            <mxPoint x="2219" y="162" as="sourcePoint" />
            <mxPoint x="2208" y="212" as="targetPoint" />
          </mxGeometry>
        </mxCell>
        <mxCell id="VXFz6mvKQ9PJlcC3uVo2-97" style="rounded=0;orthogonalLoop=1;jettySize=auto;html=1;endArrow=none;endFill=0;" parent="VXFz6mvKQ9PJlcC3uVo2-1" source="VXFz6mvKQ9PJlcC3uVo2-95" target="VXFz6mvKQ9PJlcC3uVo2-92" edge="1">
          <mxGeometry relative="1" as="geometry">
            <mxPoint x="2292" y="200" as="sourcePoint" />
            <mxPoint x="2246" y="219" as="targetPoint" />
          </mxGeometry>
        </mxCell>
        <UserObject label="&lt;font color=&quot;#999999&quot;&gt;L21_&lt;/font&gt;Taakstructu-&lt;br&gt;rering" id="VXFz6mvKQ9PJlcC3uVo2-98">
          <mxCell style="ellipse;whiteSpace=wrap;html=1;" parent="VXFz6mvKQ9PJlcC3uVo2-1" vertex="1">
            <mxGeometry x="1945" y="499" width="120" height="46" as="geometry" />
          </mxCell>
        </UserObject>
        <mxCell id="VXFz6mvKQ9PJlcC3uVo2-99" style="rounded=0;orthogonalLoop=1;jettySize=auto;html=1;endArrow=none;endFill=0;" parent="VXFz6mvKQ9PJlcC3uVo2-1" source="VXFz6mvKQ9PJlcC3uVo2-131" target="VXFz6mvKQ9PJlcC3uVo2-98" edge="1">
          <mxGeometry relative="1" as="geometry">
            <mxPoint x="1940" y="433" as="sourcePoint" />
            <mxPoint x="1951" y="402" as="targetPoint" />
          </mxGeometry>
        </mxCell>
        <mxCell id="VXFz6mvKQ9PJlcC3uVo2-100" style="rounded=0;orthogonalLoop=1;jettySize=auto;html=1;endArrow=none;endFill=0;" parent="VXFz6mvKQ9PJlcC3uVo2-1" source="VXFz6mvKQ9PJlcC3uVo2-98" target="VXFz6mvKQ9PJlcC3uVo2-24" edge="1">
          <mxGeometry relative="1" as="geometry">
            <mxPoint x="1940" y="433" as="sourcePoint" />
            <mxPoint x="1951" y="402" as="targetPoint" />
          </mxGeometry>
        </mxCell>
        <mxCell id="VXFz6mvKQ9PJlcC3uVo2-101" style="rounded=0;orthogonalLoop=1;jettySize=auto;html=1;endArrow=none;endFill=0;" parent="VXFz6mvKQ9PJlcC3uVo2-1" source="VXFz6mvKQ9PJlcC3uVo2-98" target="VXFz6mvKQ9PJlcC3uVo2-25" edge="1">
          <mxGeometry relative="1" as="geometry">
            <mxPoint x="1940" y="433" as="sourcePoint" />
            <mxPoint x="1951" y="402" as="targetPoint" />
          </mxGeometry>
        </mxCell>
        <mxCell id="VXFz6mvKQ9PJlcC3uVo2-102" style="rounded=0;orthogonalLoop=1;jettySize=auto;html=1;endArrow=none;endFill=0;" parent="VXFz6mvKQ9PJlcC3uVo2-1" source="VXFz6mvKQ9PJlcC3uVo2-120" target="VXFz6mvKQ9PJlcC3uVo2-89" edge="1">
          <mxGeometry relative="1" as="geometry">
            <mxPoint x="2292" y="200" as="sourcePoint" />
            <mxPoint x="2246" y="219" as="targetPoint" />
          </mxGeometry>
        </mxCell>
        <mxCell id="VXFz6mvKQ9PJlcC3uVo2-103" style="rounded=0;orthogonalLoop=1;jettySize=auto;html=1;endArrow=none;endFill=0;" parent="VXFz6mvKQ9PJlcC3uVo2-1" source="VXFz6mvKQ9PJlcC3uVo2-18" target="VXFz6mvKQ9PJlcC3uVo2-120" edge="1">
          <mxGeometry relative="1" as="geometry">
            <mxPoint x="2119" y="231" as="sourcePoint" />
            <mxPoint x="2141" y="233" as="targetPoint" />
          </mxGeometry>
        </mxCell>
        <UserObject label="&lt;font color=&quot;#999999&quot;&gt;L30_&lt;/font&gt;concurrency pc" id="VXFz6mvKQ9PJlcC3uVo2-104">
          <mxCell style="ellipse;whiteSpace=wrap;html=1;" parent="VXFz6mvKQ9PJlcC3uVo2-1" vertex="1">
            <mxGeometry x="2257.5" y="373" width="120" height="38" as="geometry" />
          </mxCell>
        </UserObject>
        <UserObject label="&lt;font color=&quot;#999999&quot;&gt;L34_&lt;/font&gt;Mutex" id="VXFz6mvKQ9PJlcC3uVo2-105">
          <mxCell style="ellipse;whiteSpace=wrap;html=1;" parent="VXFz6mvKQ9PJlcC3uVo2-1" vertex="1">
            <mxGeometry x="2297.5" y="434" width="72.5" height="32" as="geometry" />
          </mxCell>
        </UserObject>
        <mxCell id="VXFz6mvKQ9PJlcC3uVo2-106" style="rounded=0;orthogonalLoop=1;jettySize=auto;html=1;endArrow=none;endFill=0;" parent="VXFz6mvKQ9PJlcC3uVo2-1" source="VXFz6mvKQ9PJlcC3uVo2-105" target="VXFz6mvKQ9PJlcC3uVo2-104" edge="1">
          <mxGeometry relative="1" as="geometry">
            <mxPoint x="2303" y="434" as="sourcePoint" />
            <mxPoint x="2314" y="317" as="targetPoint" />
          </mxGeometry>
        </mxCell>
        <UserObject label="&lt;font color=&quot;#999999&quot;&gt;L38_&lt;/font&gt;Waitables" id="VXFz6mvKQ9PJlcC3uVo2-107">
          <mxCell style="ellipse;whiteSpace=wrap;html=1;" parent="VXFz6mvKQ9PJlcC3uVo2-1" vertex="1">
            <mxGeometry x="2406.63" y="445.5" width="87.25" height="29" as="geometry" />
          </mxCell>
        </UserObject>
        <UserObject label="&lt;font color=&quot;#999999&quot;&gt;L39_&lt;/font&gt;Mesh update" id="VXFz6mvKQ9PJlcC3uVo2-108">
          <mxCell style="ellipse;whiteSpace=wrap;html=1;dashed=1;" parent="VXFz6mvKQ9PJlcC3uVo2-1" vertex="1">
            <mxGeometry x="2189.5" y="582" width="62.5" height="39" as="geometry" />
          </mxCell>
        </UserObject>
        <mxCell id="VXFz6mvKQ9PJlcC3uVo2-109" style="rounded=0;orthogonalLoop=1;jettySize=auto;html=1;endArrow=none;endFill=0;" parent="VXFz6mvKQ9PJlcC3uVo2-1" source="VXFz6mvKQ9PJlcC3uVo2-108" target="VXFz6mvKQ9PJlcC3uVo2-48" edge="1">
          <mxGeometry relative="1" as="geometry">
            <mxPoint x="2282" y="542" as="sourcePoint" />
            <mxPoint x="2306" y="523" as="targetPoint" />
          </mxGeometry>
        </mxCell>
        <UserObject label="&lt;font color=&quot;#999999&quot;&gt;L31_&lt;/font&gt;CleanRtos" id="VXFz6mvKQ9PJlcC3uVo2-110">
          <mxCell style="ellipse;whiteSpace=wrap;html=1;" parent="VXFz6mvKQ9PJlcC3uVo2-1" vertex="1">
            <mxGeometry x="2355.63" y="406.5" width="98.75" height="28" as="geometry" />
          </mxCell>
        </UserObject>
        <mxCell id="VXFz6mvKQ9PJlcC3uVo2-111" style="rounded=0;orthogonalLoop=1;jettySize=auto;html=1;endArrow=none;endFill=0;" parent="VXFz6mvKQ9PJlcC3uVo2-1" source="VXFz6mvKQ9PJlcC3uVo2-45" target="VXFz6mvKQ9PJlcC3uVo2-110" edge="1">
          <mxGeometry relative="1" as="geometry">
            <mxPoint x="2311" y="498" as="sourcePoint" />
            <mxPoint x="2274" y="475" as="targetPoint" />
          </mxGeometry>
        </mxCell>
        <UserObject label="&lt;font color=&quot;#999999&quot;&gt;L37_&lt;/font&gt;Pool" id="VXFz6mvKQ9PJlcC3uVo2-112">
          <mxCell style="ellipse;whiteSpace=wrap;html=1;" parent="VXFz6mvKQ9PJlcC3uVo2-1" vertex="1">
            <mxGeometry x="2367.25" y="482" width="67.5" height="27" as="geometry" />
          </mxCell>
        </UserObject>
        <mxCell id="VXFz6mvKQ9PJlcC3uVo2-113" style="rounded=0;orthogonalLoop=1;jettySize=auto;html=1;endArrow=none;endFill=0;" parent="VXFz6mvKQ9PJlcC3uVo2-1" source="VXFz6mvKQ9PJlcC3uVo2-110" target="VXFz6mvKQ9PJlcC3uVo2-107" edge="1">
          <mxGeometry relative="1" as="geometry">
            <mxPoint x="2311" y="498" as="sourcePoint" />
            <mxPoint x="2274" y="475" as="targetPoint" />
          </mxGeometry>
        </mxCell>
        <mxCell id="VXFz6mvKQ9PJlcC3uVo2-114" style="rounded=0;orthogonalLoop=1;jettySize=auto;html=1;endArrow=none;endFill=0;" parent="VXFz6mvKQ9PJlcC3uVo2-1" source="VXFz6mvKQ9PJlcC3uVo2-110" target="VXFz6mvKQ9PJlcC3uVo2-112" edge="1">
          <mxGeometry relative="1" as="geometry">
            <mxPoint x="2334" y="496" as="sourcePoint" />
            <mxPoint x="2340" y="474" as="targetPoint" />
          </mxGeometry>
        </mxCell>
        <mxCell id="VXFz6mvKQ9PJlcC3uVo2-115" style="rounded=0;orthogonalLoop=1;jettySize=auto;html=1;endArrow=none;endFill=0;" parent="VXFz6mvKQ9PJlcC3uVo2-1" source="VXFz6mvKQ9PJlcC3uVo2-45" target="VXFz6mvKQ9PJlcC3uVo2-105" edge="1">
          <mxGeometry relative="1" as="geometry">
            <mxPoint x="2313" y="444" as="sourcePoint" />
            <mxPoint x="2291" y="428" as="targetPoint" />
          </mxGeometry>
        </mxCell>
        <UserObject label="&lt;font color=&quot;#999999&quot;&gt;L11_&lt;/font&gt;Compact and Clean" id="VXFz6mvKQ9PJlcC3uVo2-116">
          <mxCell style="ellipse;whiteSpace=wrap;html=1;" parent="VXFz6mvKQ9PJlcC3uVo2-1" vertex="1">
            <mxGeometry x="2377.5" y="182" width="115" height="42" as="geometry" />
          </mxCell>
        </UserObject>
        <UserObject label="&lt;font color=&quot;#999999&quot;&gt;L12_&lt;/font&gt;Quick and Dirty" id="VXFz6mvKQ9PJlcC3uVo2-117">
          <mxCell style="ellipse;whiteSpace=wrap;html=1;" parent="VXFz6mvKQ9PJlcC3uVo2-1" vertex="1">
            <mxGeometry x="2297.5" y="225" width="122.5" height="30" as="geometry" />
          </mxCell>
        </UserObject>
        <mxCell id="VXFz6mvKQ9PJlcC3uVo2-118" style="rounded=0;orthogonalLoop=1;jettySize=auto;html=1;endArrow=none;endFill=0;" parent="VXFz6mvKQ9PJlcC3uVo2-1" source="VXFz6mvKQ9PJlcC3uVo2-116" target="VXFz6mvKQ9PJlcC3uVo2-89" edge="1">
          <mxGeometry relative="1" as="geometry">
            <mxPoint x="2322" y="228" as="sourcePoint" />
            <mxPoint x="2264" y="232" as="targetPoint" />
          </mxGeometry>
        </mxCell>
        <mxCell id="VXFz6mvKQ9PJlcC3uVo2-119" style="rounded=0;orthogonalLoop=1;jettySize=auto;html=1;endArrow=none;endFill=0;" parent="VXFz6mvKQ9PJlcC3uVo2-1" source="VXFz6mvKQ9PJlcC3uVo2-117" target="VXFz6mvKQ9PJlcC3uVo2-89" edge="1">
          <mxGeometry relative="1" as="geometry">
            <mxPoint x="2343" y="259" as="sourcePoint" />
            <mxPoint x="2261" y="246" as="targetPoint" />
          </mxGeometry>
        </mxCell>
        <UserObject label="&lt;font color=&quot;#999999&quot;&gt;L15_&lt;/font&gt;PLC progammeren" id="VXFz6mvKQ9PJlcC3uVo2-120">
          <mxCell style="ellipse;whiteSpace=wrap;html=1;" parent="VXFz6mvKQ9PJlcC3uVo2-1" vertex="1">
            <mxGeometry x="2095" y="299" width="115" height="30" as="geometry" />
          </mxCell>
        </UserObject>
        <UserObject label="&lt;font color=&quot;#999999&quot;&gt;L14_&lt;/font&gt;Digitale Electronica Debuggen" id="VXFz6mvKQ9PJlcC3uVo2-121">
          <mxCell style="ellipse;whiteSpace=wrap;html=1;" parent="VXFz6mvKQ9PJlcC3uVo2-1" vertex="1">
            <mxGeometry x="2222.5" y="282" width="107.5" height="48" as="geometry" />
          </mxCell>
        </UserObject>
        <mxCell id="VXFz6mvKQ9PJlcC3uVo2-122" style="rounded=0;orthogonalLoop=1;jettySize=auto;html=1;endArrow=none;endFill=0;" parent="VXFz6mvKQ9PJlcC3uVo2-1" source="VXFz6mvKQ9PJlcC3uVo2-121" target="VXFz6mvKQ9PJlcC3uVo2-89" edge="1">
          <mxGeometry relative="1" as="geometry">
            <mxPoint x="2384" y="302" as="sourcePoint" />
            <mxPoint x="2249" y="254" as="targetPoint" />
          </mxGeometry>
        </mxCell>
        <mxCell id="VXFz6mvKQ9PJlcC3uVo2-123" style="rounded=0;orthogonalLoop=1;jettySize=auto;html=1;endArrow=none;endFill=0;" parent="VXFz6mvKQ9PJlcC3uVo2-1" source="VXFz6mvKQ9PJlcC3uVo2-121" target="VXFz6mvKQ9PJlcC3uVo2-120" edge="1">
          <mxGeometry relative="1" as="geometry">
            <mxPoint x="2274" y="305" as="sourcePoint" />
            <mxPoint x="2227" y="260" as="targetPoint" />
          </mxGeometry>
        </mxCell>
        <UserObject label="&lt;font color=&quot;#999999&quot;&gt;L35_&lt;/font&gt;Debugging" id="VXFz6mvKQ9PJlcC3uVo2-124">
          <mxCell style="ellipse;whiteSpace=wrap;html=1;" parent="VXFz6mvKQ9PJlcC3uVo2-1" vertex="1">
            <mxGeometry x="2141.25" y="532" width="95.5" height="30" as="geometry" />
          </mxCell>
        </UserObject>
        <mxCell id="VXFz6mvKQ9PJlcC3uVo2-125" style="rounded=0;orthogonalLoop=1;jettySize=auto;html=1;endArrow=none;endFill=0;" parent="VXFz6mvKQ9PJlcC3uVo2-1" source="VXFz6mvKQ9PJlcC3uVo2-48" target="VXFz6mvKQ9PJlcC3uVo2-124" edge="1">
          <mxGeometry relative="1" as="geometry">
            <mxPoint x="2311" y="498" as="sourcePoint" />
            <mxPoint x="2274" y="475" as="targetPoint" />
          </mxGeometry>
        </mxCell>
        <UserObject label="&lt;font color=&quot;#999999&quot;&gt;L13_&lt;/font&gt;Digitale Electronica Simuleren" id="VXFz6mvKQ9PJlcC3uVo2-126">
          <mxCell style="ellipse;whiteSpace=wrap;html=1;" parent="VXFz6mvKQ9PJlcC3uVo2-1" vertex="1">
            <mxGeometry x="2332.5" y="264" width="107.5" height="48" as="geometry" />
          </mxCell>
        </UserObject>
        <mxCell id="VXFz6mvKQ9PJlcC3uVo2-127" style="rounded=0;orthogonalLoop=1;jettySize=auto;html=1;endArrow=none;endFill=0;" parent="VXFz6mvKQ9PJlcC3uVo2-1" source="VXFz6mvKQ9PJlcC3uVo2-126" target="VXFz6mvKQ9PJlcC3uVo2-89" edge="1">
          <mxGeometry relative="1" as="geometry">
            <mxPoint x="2310" y="246" as="sourcePoint" />
            <mxPoint x="2264" y="242" as="targetPoint" />
          </mxGeometry>
        </mxCell>
        <mxCell id="VXFz6mvKQ9PJlcC3uVo2-128" style="rounded=0;orthogonalLoop=1;jettySize=auto;html=1;endArrow=none;endFill=0;" parent="VXFz6mvKQ9PJlcC3uVo2-1" source="VXFz6mvKQ9PJlcC3uVo2-22" target="VXFz6mvKQ9PJlcC3uVo2-43" edge="1">
          <mxGeometry relative="1" as="geometry">
            <mxPoint x="1876" y="359" as="sourcePoint" />
            <mxPoint x="1919" y="434" as="targetPoint" />
          </mxGeometry>
        </mxCell>
        <UserObject label="&lt;font color=&quot;#999999&quot;&gt;L27_&lt;/font&gt;Helder onderbouwd advies requirements" id="VXFz6mvKQ9PJlcC3uVo2-129">
          <mxCell style="ellipse;whiteSpace=wrap;html=1;" parent="VXFz6mvKQ9PJlcC3uVo2-1" vertex="1">
            <mxGeometry x="1801" y="626" width="155" height="48.5" as="geometry" />
          </mxCell>
        </UserObject>
        <UserObject label="&lt;font color=&quot;#999999&quot;&gt;L28_&lt;/font&gt;Geprioriteerde&lt;br&gt;key drivers" id="VXFz6mvKQ9PJlcC3uVo2-130">
          <mxCell style="ellipse;whiteSpace=wrap;html=1;" parent="VXFz6mvKQ9PJlcC3uVo2-1" vertex="1">
            <mxGeometry x="1735" y="681.5" width="125" height="49" as="geometry" />
          </mxCell>
        </UserObject>
        <mxCell id="VXFz6mvKQ9PJlcC3uVo2-131" value="Design" style="ellipse;whiteSpace=wrap;html=1;strokeWidth=2;" parent="VXFz6mvKQ9PJlcC3uVo2-1" vertex="1">
          <mxGeometry x="2037.51" y="458" width="57.5" height="34.5" as="geometry" />
        </mxCell>
        <mxCell id="VXFz6mvKQ9PJlcC3uVo2-132" value="Software&lt;br&gt;Architecture" style="ellipse;whiteSpace=wrap;html=1;strokeWidth=2;" parent="VXFz6mvKQ9PJlcC3uVo2-1" vertex="1">
          <mxGeometry x="1971.25" y="395.5" width="92.5" height="50" as="geometry" />
        </mxCell>
        <mxCell id="VXFz6mvKQ9PJlcC3uVo2-133" style="rounded=0;orthogonalLoop=1;jettySize=auto;html=1;endArrow=none;endFill=0;" parent="VXFz6mvKQ9PJlcC3uVo2-1" source="VXFz6mvKQ9PJlcC3uVo2-131" target="VXFz6mvKQ9PJlcC3uVo2-132" edge="1">
          <mxGeometry relative="1" as="geometry">
            <mxPoint x="2094" y="488" as="sourcePoint" />
            <mxPoint x="2129" y="462" as="targetPoint" />
          </mxGeometry>
        </mxCell>
        <mxCell id="VXFz6mvKQ9PJlcC3uVo2-134" style="orthogonalLoop=1;jettySize=auto;html=1;endArrow=none;endFill=0;curved=1;" parent="VXFz6mvKQ9PJlcC3uVo2-1" source="VXFz6mvKQ9PJlcC3uVo2-25" target="VXFz6mvKQ9PJlcC3uVo2-131" edge="1">
          <mxGeometry relative="1" as="geometry">
            <mxPoint x="1882" y="544" as="sourcePoint" />
            <mxPoint x="1809" y="447" as="targetPoint" />
            <Array as="points">
              <mxPoint x="1940" y="490" />
            </Array>
          </mxGeometry>
        </mxCell>
        <mxCell id="VXFz6mvKQ9PJlcC3uVo2-135" style="rounded=0;orthogonalLoop=1;jettySize=auto;html=1;endArrow=none;endFill=0;" parent="VXFz6mvKQ9PJlcC3uVo2-1" source="VXFz6mvKQ9PJlcC3uVo2-20" target="VXFz6mvKQ9PJlcC3uVo2-132" edge="1">
          <mxGeometry relative="1" as="geometry">
            <mxPoint x="1813" y="464" as="sourcePoint" />
            <mxPoint x="1870" y="454" as="targetPoint" />
          </mxGeometry>
        </mxCell>
        <UserObject label="&lt;font color=&quot;#999999&quot;&gt;L26_&lt;/font&gt;Key driver chart" id="VXFz6mvKQ9PJlcC3uVo2-136">
          <mxCell style="ellipse;whiteSpace=wrap;html=1;" parent="VXFz6mvKQ9PJlcC3uVo2-1" vertex="1">
            <mxGeometry x="1710" y="608" width="70" height="37" as="geometry" />
          </mxCell>
        </UserObject>
        <mxCell id="VXFz6mvKQ9PJlcC3uVo2-137" style="rounded=0;orthogonalLoop=1;jettySize=auto;html=1;endArrow=none;endFill=0;" parent="VXFz6mvKQ9PJlcC3uVo2-1" source="VXFz6mvKQ9PJlcC3uVo2-130" target="VXFz6mvKQ9PJlcC3uVo2-129" edge="1">
          <mxGeometry relative="1" as="geometry">
            <mxPoint x="1841" y="683" as="sourcePoint" />
            <mxPoint x="1820" y="664" as="targetPoint" />
          </mxGeometry>
        </mxCell>
        <mxCell id="VXFz6mvKQ9PJlcC3uVo2-138" style="rounded=0;orthogonalLoop=1;jettySize=auto;html=1;endArrow=none;endFill=0;" parent="VXFz6mvKQ9PJlcC3uVo2-1" source="VXFz6mvKQ9PJlcC3uVo2-129" target="VXFz6mvKQ9PJlcC3uVo2-136" edge="1">
          <mxGeometry relative="1" as="geometry">
            <mxPoint x="1870" y="675" as="sourcePoint" />
            <mxPoint x="1832" y="658" as="targetPoint" />
          </mxGeometry>
        </mxCell>
        <mxCell id="VXFz6mvKQ9PJlcC3uVo2-139" style="rounded=0;orthogonalLoop=1;jettySize=auto;html=1;endArrow=none;endFill=0;" parent="VXFz6mvKQ9PJlcC3uVo2-1" source="VXFz6mvKQ9PJlcC3uVo2-136" target="VXFz6mvKQ9PJlcC3uVo2-130" edge="1">
          <mxGeometry relative="1" as="geometry">
            <mxPoint x="1812" y="667" as="sourcePoint" />
            <mxPoint x="1846" y="721" as="targetPoint" />
          </mxGeometry>
        </mxCell>
        <mxCell id="VXFz6mvKQ9PJlcC3uVo2-140" style="orthogonalLoop=1;jettySize=auto;html=1;endArrow=none;endFill=0;curved=1;" parent="VXFz6mvKQ9PJlcC3uVo2-1" source="VXFz6mvKQ9PJlcC3uVo2-136" target="VXFz6mvKQ9PJlcC3uVo2-20" edge="1">
          <mxGeometry relative="1" as="geometry">
            <mxPoint x="1731" y="617" as="sourcePoint" />
            <mxPoint x="1752" y="682" as="targetPoint" />
            <Array as="points">
              <mxPoint x="1750" y="530" />
            </Array>
          </mxGeometry>
        </mxCell>
        <mxCell id="VXFz6mvKQ9PJlcC3uVo2-141" style="orthogonalLoop=1;jettySize=auto;html=1;endArrow=none;endFill=0;curved=1;" parent="VXFz6mvKQ9PJlcC3uVo2-1" source="VXFz6mvKQ9PJlcC3uVo2-129" target="VXFz6mvKQ9PJlcC3uVo2-20" edge="1">
          <mxGeometry relative="1" as="geometry">
            <mxPoint x="1735" y="585" as="sourcePoint" />
            <mxPoint x="1883" y="465" as="targetPoint" />
            <Array as="points">
              <mxPoint x="1700" y="560" />
            </Array>
          </mxGeometry>
        </mxCell>
        <UserObject label="&lt;font color=&quot;#999999&quot;&gt;L29_&lt;/font&gt;Degelijk en helder gedocumenteerd, goed overdraagbaar design" id="VXFz6mvKQ9PJlcC3uVo2-142">
          <mxCell style="ellipse;whiteSpace=wrap;html=1;" parent="VXFz6mvKQ9PJlcC3uVo2-1" vertex="1">
            <mxGeometry x="2057.5" y="679" width="152.5" height="71" as="geometry" />
          </mxCell>
        </UserObject>
        <mxCell id="VXFz6mvKQ9PJlcC3uVo2-143" style="orthogonalLoop=1;jettySize=auto;html=1;endArrow=none;endFill=0;curved=1;" parent="VXFz6mvKQ9PJlcC3uVo2-1" source="VXFz6mvKQ9PJlcC3uVo2-131" target="VXFz6mvKQ9PJlcC3uVo2-142" edge="1">
          <mxGeometry relative="1" as="geometry">
            <mxPoint x="1928" y="569" as="sourcePoint" />
            <mxPoint x="2048" y="501" as="targetPoint" />
            <Array as="points">
              <mxPoint x="2240" y="650" />
            </Array>
          </mxGeometry>
        </mxCell>
        <mxCell id="VXFz6mvKQ9PJlcC3uVo2-144" value="Adviseren" style="ellipse;whiteSpace=wrap;html=1;strokeWidth=2;" parent="VXFz6mvKQ9PJlcC3uVo2-1" vertex="1">
          <mxGeometry x="1922.5" y="686" width="85" height="48" as="geometry" />
        </mxCell>
        <mxCell id="VXFz6mvKQ9PJlcC3uVo2-145" style="rounded=0;orthogonalLoop=1;jettySize=auto;html=1;endArrow=none;endFill=0;" parent="VXFz6mvKQ9PJlcC3uVo2-1" source="VXFz6mvKQ9PJlcC3uVo2-142" target="VXFz6mvKQ9PJlcC3uVo2-144" edge="1">
          <mxGeometry relative="1" as="geometry">
            <mxPoint x="2108" y="604" as="sourcePoint" />
            <mxPoint x="2090" y="586" as="targetPoint" />
          </mxGeometry>
        </mxCell>
        <mxCell id="VXFz6mvKQ9PJlcC3uVo2-146" style="rounded=0;orthogonalLoop=1;jettySize=auto;html=1;endArrow=none;endFill=0;" parent="VXFz6mvKQ9PJlcC3uVo2-1" source="VXFz6mvKQ9PJlcC3uVo2-144" target="VXFz6mvKQ9PJlcC3uVo2-129" edge="1">
          <mxGeometry relative="1" as="geometry">
            <mxPoint x="2018" y="704" as="sourcePoint" />
            <mxPoint x="1995" y="705" as="targetPoint" />
          </mxGeometry>
        </mxCell>
        <UserObject label="&lt;font color=&quot;#999999&quot;&gt;L43_&lt;/font&gt;Testen" id="VXFz6mvKQ9PJlcC3uVo2-147">
          <mxCell style="ellipse;whiteSpace=wrap;html=1;strokeColor=#333333;strokeWidth=2;" parent="VXFz6mvKQ9PJlcC3uVo2-1" vertex="1">
            <mxGeometry x="2413" y="694" width="72.5" height="35" as="geometry" />
          </mxCell>
        </UserObject>
        <UserObject label="&lt;font color=&quot;#999999&quot;&gt;L45_&lt;/font&gt;Helder gedocumenteerd,&amp;nbsp; reproduceerbaar, volgens testplan" id="VXFz6mvKQ9PJlcC3uVo2-148">
          <mxCell style="ellipse;whiteSpace=wrap;html=1;" parent="VXFz6mvKQ9PJlcC3uVo2-1" vertex="1">
            <mxGeometry x="2492.63" y="712.5" width="118.75" height="68" as="geometry" />
          </mxCell>
        </UserObject>
        <mxCell id="VXFz6mvKQ9PJlcC3uVo2-149" style="rounded=0;orthogonalLoop=1;jettySize=auto;html=1;endArrow=none;endFill=0;" parent="VXFz6mvKQ9PJlcC3uVo2-1" source="VXFz6mvKQ9PJlcC3uVo2-147" target="VXFz6mvKQ9PJlcC3uVo2-148" edge="1">
          <mxGeometry relative="1" as="geometry">
            <mxPoint x="2401" y="580" as="sourcePoint" />
            <mxPoint x="2434" y="630" as="targetPoint" />
          </mxGeometry>
        </mxCell>
        <UserObject label="&lt;font color=&quot;#999999&quot;&gt;L44_&lt;/font&gt;Zoveel mogelijk eerst per subsysteem apart" id="VXFz6mvKQ9PJlcC3uVo2-150">
          <mxCell style="ellipse;whiteSpace=wrap;html=1;" parent="VXFz6mvKQ9PJlcC3uVo2-1" vertex="1">
            <mxGeometry x="2307.13" y="729" width="138.75" height="58" as="geometry" />
          </mxCell>
        </UserObject>
        <mxCell id="VXFz6mvKQ9PJlcC3uVo2-151" style="rounded=0;orthogonalLoop=1;jettySize=auto;html=1;endArrow=none;endFill=0;" parent="VXFz6mvKQ9PJlcC3uVo2-1" source="VXFz6mvKQ9PJlcC3uVo2-147" target="VXFz6mvKQ9PJlcC3uVo2-150" edge="1">
          <mxGeometry relative="1" as="geometry">
            <mxPoint x="2350" y="706" as="sourcePoint" />
            <mxPoint x="2341" y="722" as="targetPoint" />
          </mxGeometry>
        </mxCell>
        <mxCell id="VXFz6mvKQ9PJlcC3uVo2-152" style="rounded=0;orthogonalLoop=1;jettySize=auto;html=1;endArrow=none;endFill=0;" parent="VXFz6mvKQ9PJlcC3uVo2-1" source="VXFz6mvKQ9PJlcC3uVo2-59" target="VXFz6mvKQ9PJlcC3uVo2-147" edge="1">
          <mxGeometry relative="1" as="geometry">
            <mxPoint x="2336" y="723" as="sourcePoint" />
            <mxPoint x="2301" y="740" as="targetPoint" />
          </mxGeometry>
        </mxCell>
        <mxCell id="VXFz6mvKQ9PJlcC3uVo2-153" style="orthogonalLoop=1;jettySize=auto;html=1;endArrow=none;endFill=0;curved=1;" parent="VXFz6mvKQ9PJlcC3uVo2-1" source="VXFz6mvKQ9PJlcC3uVo2-48" target="VXFz6mvKQ9PJlcC3uVo2-147" edge="1">
          <mxGeometry relative="1" as="geometry">
            <mxPoint x="2529" y="659" as="sourcePoint" />
            <mxPoint x="2387" y="703" as="targetPoint" />
            <Array as="points">
              <mxPoint x="2210" y="720" />
            </Array>
          </mxGeometry>
        </mxCell>
        <UserObject label="&lt;font color=&quot;#999999&quot;&gt;L42_&lt;/font&gt;Debuggen" id="VXFz6mvKQ9PJlcC3uVo2-154">
          <mxCell style="ellipse;whiteSpace=wrap;html=1;strokeColor=#333333;strokeWidth=1;" parent="VXFz6mvKQ9PJlcC3uVo2-1" vertex="1">
            <mxGeometry x="2326" y="661" width="91.25" height="35" as="geometry" />
          </mxCell>
        </UserObject>
        <mxCell id="VXFz6mvKQ9PJlcC3uVo2-155" style="orthogonalLoop=1;jettySize=auto;html=1;endArrow=none;endFill=0;curved=1;" parent="VXFz6mvKQ9PJlcC3uVo2-1" source="VXFz6mvKQ9PJlcC3uVo2-48" target="VXFz6mvKQ9PJlcC3uVo2-154" edge="1">
          <mxGeometry relative="1" as="geometry">
            <mxPoint x="2266" y="568" as="sourcePoint" />
            <mxPoint x="2348" y="721" as="targetPoint" />
            <Array as="points">
              <mxPoint x="2231" y="687" />
            </Array>
          </mxGeometry>
        </mxCell>
        <mxCell id="VXFz6mvKQ9PJlcC3uVo2-156" style="rounded=0;orthogonalLoop=1;jettySize=auto;html=1;endArrow=none;endFill=0;" parent="VXFz6mvKQ9PJlcC3uVo2-1" source="VXFz6mvKQ9PJlcC3uVo2-59" target="VXFz6mvKQ9PJlcC3uVo2-154" edge="1">
          <mxGeometry relative="1" as="geometry">
            <mxPoint x="2531" y="662" as="sourcePoint" />
            <mxPoint x="2397" y="721" as="targetPoint" />
          </mxGeometry>
        </mxCell>
        <UserObject label="&lt;font color=&quot;#999999&quot;&gt;L59_&lt;/font&gt;Nagaan welke kennis nog ontbreekt en die op doordachte wijze opdoen" id="VXFz6mvKQ9PJlcC3uVo2-157">
          <mxCell style="ellipse;whiteSpace=wrap;html=1;" parent="VXFz6mvKQ9PJlcC3uVo2-1" vertex="1">
            <mxGeometry x="1750" y="800" width="153.5" height="78" as="geometry" />
          </mxCell>
        </UserObject>
        <UserObject label="&lt;font color=&quot;#999999&quot;&gt;L60_&lt;/font&gt;zelfstandig plannen, rekening &lt;br&gt;houdend met de beoogde implementatie, beschikbare middelen, tijd, ethische en duurzaamheidsaspecten" id="VXFz6mvKQ9PJlcC3uVo2-158">
          <mxCell style="ellipse;whiteSpace=wrap;html=1;" parent="VXFz6mvKQ9PJlcC3uVo2-1" vertex="1">
            <mxGeometry x="1941.88" y="790" width="248.75" height="80.5" as="geometry" />
          </mxCell>
        </UserObject>
        <mxCell id="VXFz6mvKQ9PJlcC3uVo2-159" value="Interactief vermogen" style="ellipse;whiteSpace=wrap;html=1;strokeColor=#333333;strokeWidth=2;" parent="VXFz6mvKQ9PJlcC3uVo2-1" vertex="1">
          <mxGeometry x="2383.38" y="872.5" width="83.75" height="48" as="geometry" />
        </mxCell>
        <UserObject label="&lt;font color=&quot;#999999&quot;&gt;L66_&lt;/font&gt;correct, doelgericht Nederlands" id="VXFz6mvKQ9PJlcC3uVo2-160">
          <mxCell style="ellipse;whiteSpace=wrap;html=1;" parent="VXFz6mvKQ9PJlcC3uVo2-1" vertex="1">
            <mxGeometry x="2446.25" y="824" width="147.75" height="45" as="geometry" />
          </mxCell>
        </UserObject>
        <UserObject label="&lt;font color=&quot;#999999&quot;&gt;L65_&lt;/font&gt;Initiatief nemen voor gesprekken om relevante input te geven" id="VXFz6mvKQ9PJlcC3uVo2-161">
          <mxCell style="ellipse;whiteSpace=wrap;html=1;" parent="VXFz6mvKQ9PJlcC3uVo2-1" vertex="1">
            <mxGeometry x="2231.63" y="826.5" width="151.75" height="63" as="geometry" />
          </mxCell>
        </UserObject>
        <UserObject label="&lt;font color=&quot;#999999&quot;&gt;L67_&lt;/font&gt;Luisteren, &lt;br&gt;vragen adequaat beantwoorden" id="VXFz6mvKQ9PJlcC3uVo2-162">
          <mxCell style="ellipse;whiteSpace=wrap;html=1;" parent="VXFz6mvKQ9PJlcC3uVo2-1" vertex="1">
            <mxGeometry x="2471.25" y="897.13" width="120.37" height="60.75" as="geometry" />
          </mxCell>
        </UserObject>
        <mxCell id="VXFz6mvKQ9PJlcC3uVo2-163" style="rounded=0;orthogonalLoop=1;jettySize=auto;html=1;endArrow=none;endFill=0;" parent="VXFz6mvKQ9PJlcC3uVo2-1" source="VXFz6mvKQ9PJlcC3uVo2-160" target="VXFz6mvKQ9PJlcC3uVo2-159" edge="1">
          <mxGeometry relative="1" as="geometry">
            <mxPoint x="2655.37" y="753.5" as="sourcePoint" />
            <mxPoint x="2521.37" y="812.5" as="targetPoint" />
          </mxGeometry>
        </mxCell>
        <mxCell id="VXFz6mvKQ9PJlcC3uVo2-164" style="rounded=0;orthogonalLoop=1;jettySize=auto;html=1;endArrow=none;endFill=0;" parent="VXFz6mvKQ9PJlcC3uVo2-1" source="VXFz6mvKQ9PJlcC3uVo2-161" target="VXFz6mvKQ9PJlcC3uVo2-159" edge="1">
          <mxGeometry relative="1" as="geometry">
            <mxPoint x="2450.37" y="914.5" as="sourcePoint" />
            <mxPoint x="2428.37" y="916.5" as="targetPoint" />
          </mxGeometry>
        </mxCell>
        <mxCell id="VXFz6mvKQ9PJlcC3uVo2-165" style="rounded=0;orthogonalLoop=1;jettySize=auto;html=1;endArrow=none;endFill=0;" parent="VXFz6mvKQ9PJlcC3uVo2-1" source="VXFz6mvKQ9PJlcC3uVo2-162" target="VXFz6mvKQ9PJlcC3uVo2-159" edge="1">
          <mxGeometry relative="1" as="geometry">
            <mxPoint x="2463.37" y="954.5" as="sourcePoint" />
            <mxPoint x="2418.37" y="932.5" as="targetPoint" />
          </mxGeometry>
        </mxCell>
        <UserObject label="&lt;font color=&quot;#999999&quot;&gt;L63_&lt;/font&gt;Systematisch toepassen &lt;br&gt;van reflectie van eigen gedrag in relatie tot andermans waarden en normen" id="VXFz6mvKQ9PJlcC3uVo2-166">
          <mxCell style="ellipse;whiteSpace=wrap;html=1;" parent="VXFz6mvKQ9PJlcC3uVo2-1" vertex="1">
            <mxGeometry x="1965" y="929.5" width="225" height="70" as="geometry" />
          </mxCell>
        </UserObject>
        <UserObject label="&lt;font color=&quot;#999999&quot;&gt;L64_&lt;/font&gt;Eigen handelen zo nodig aanpassen" id="VXFz6mvKQ9PJlcC3uVo2-167">
          <mxCell style="ellipse;whiteSpace=wrap;html=1;" parent="VXFz6mvKQ9PJlcC3uVo2-1" vertex="1">
            <mxGeometry x="1829" y="966.5" width="110" height="47" as="geometry" />
          </mxCell>
        </UserObject>
        <mxCell id="VXFz6mvKQ9PJlcC3uVo2-168" style="rounded=0;orthogonalLoop=1;jettySize=auto;html=1;endArrow=none;endFill=0;" parent="VXFz6mvKQ9PJlcC3uVo2-1" source="VXFz6mvKQ9PJlcC3uVo2-167" target="VXFz6mvKQ9PJlcC3uVo2-166" edge="1">
          <mxGeometry relative="1" as="geometry">
            <mxPoint x="2322" y="853.5" as="sourcePoint" />
            <mxPoint x="2300" y="855.5" as="targetPoint" />
          </mxGeometry>
        </mxCell>
        <UserObject label="&lt;font color=&quot;#999999&quot;&gt;L61_&lt;/font&gt;Scrum logboek" id="VXFz6mvKQ9PJlcC3uVo2-169">
          <mxCell style="ellipse;whiteSpace=wrap;html=1;" parent="VXFz6mvKQ9PJlcC3uVo2-1" vertex="1">
            <mxGeometry x="1902.5" y="869.5" width="90" height="49" as="geometry" />
          </mxCell>
        </UserObject>
        <UserObject label="&lt;font color=&quot;#999999&quot;&gt;L62_&lt;/font&gt;Persoonlijk logboek" id="VXFz6mvKQ9PJlcC3uVo2-170">
          <mxCell style="ellipse;whiteSpace=wrap;html=1;" parent="VXFz6mvKQ9PJlcC3uVo2-1" vertex="1">
            <mxGeometry x="1801.5" y="897.13" width="95" height="49" as="geometry" />
          </mxCell>
        </UserObject>
        <mxCell id="VXFz6mvKQ9PJlcC3uVo2-171" style="rounded=0;orthogonalLoop=1;jettySize=auto;html=1;endArrow=none;endFill=0;" parent="VXFz6mvKQ9PJlcC3uVo2-1" source="VXFz6mvKQ9PJlcC3uVo2-158" target="VXFz6mvKQ9PJlcC3uVo2-169" edge="1">
          <mxGeometry relative="1" as="geometry">
            <mxPoint x="2031" y="975.5" as="sourcePoint" />
            <mxPoint x="1990" y="978.5" as="targetPoint" />
          </mxGeometry>
        </mxCell>
        <mxCell id="VXFz6mvKQ9PJlcC3uVo2-172" style="rounded=0;orthogonalLoop=1;jettySize=auto;html=1;endArrow=none;endFill=0;" parent="VXFz6mvKQ9PJlcC3uVo2-1" source="VXFz6mvKQ9PJlcC3uVo2-170" target="VXFz6mvKQ9PJlcC3uVo2-157" edge="1">
          <mxGeometry relative="1" as="geometry">
            <mxPoint x="1999" y="869.5" as="sourcePoint" />
            <mxPoint x="1976" y="883.5" as="targetPoint" />
          </mxGeometry>
        </mxCell>
        <mxCell id="VXFz6mvKQ9PJlcC3uVo2-173" style="rounded=0;orthogonalLoop=1;jettySize=auto;html=1;endArrow=none;endFill=0;" parent="VXFz6mvKQ9PJlcC3uVo2-1" source="VXFz6mvKQ9PJlcC3uVo2-169" target="VXFz6mvKQ9PJlcC3uVo2-166" edge="1">
          <mxGeometry relative="1" as="geometry">
            <mxPoint x="1999" y="869.5" as="sourcePoint" />
            <mxPoint x="1976" y="883.5" as="targetPoint" />
          </mxGeometry>
        </mxCell>
        <mxCell id="VXFz6mvKQ9PJlcC3uVo2-174" style="rounded=0;orthogonalLoop=1;jettySize=auto;html=1;endArrow=none;endFill=0;" parent="VXFz6mvKQ9PJlcC3uVo2-1" source="VXFz6mvKQ9PJlcC3uVo2-170" target="VXFz6mvKQ9PJlcC3uVo2-166" edge="1">
          <mxGeometry relative="1" as="geometry">
            <mxPoint x="1933" y="925.5" as="sourcePoint" />
            <mxPoint x="1918" y="949.5" as="targetPoint" />
          </mxGeometry>
        </mxCell>
        <mxCell id="VXFz6mvKQ9PJlcC3uVo2-175" value="Lerend vermogen" style="ellipse;whiteSpace=wrap;html=1;strokeColor=#333333;strokeWidth=2;" parent="VXFz6mvKQ9PJlcC3uVo2-1" vertex="1">
          <mxGeometry x="2135" y="876.5" width="83.75" height="48" as="geometry" />
        </mxCell>
        <mxCell id="VXFz6mvKQ9PJlcC3uVo2-176" style="rounded=0;orthogonalLoop=1;jettySize=auto;html=1;endArrow=none;endFill=0;" parent="VXFz6mvKQ9PJlcC3uVo2-1" source="VXFz6mvKQ9PJlcC3uVo2-175" target="VXFz6mvKQ9PJlcC3uVo2-166" edge="1">
          <mxGeometry relative="1" as="geometry">
            <mxPoint x="2450" y="914.5" as="sourcePoint" />
            <mxPoint x="2428" y="916.5" as="targetPoint" />
          </mxGeometry>
        </mxCell>
        <mxCell id="VXFz6mvKQ9PJlcC3uVo2-177" value="Professionele houding in samenwerking" style="ellipse;whiteSpace=wrap;html=1;strokeColor=#333333;strokeWidth=2;" parent="VXFz6mvKQ9PJlcC3uVo2-1" vertex="1">
          <mxGeometry x="2222.5" y="907.75" width="152.75" height="48" as="geometry" />
        </mxCell>
        <mxCell id="VXFz6mvKQ9PJlcC3uVo2-178" style="rounded=0;orthogonalLoop=1;jettySize=auto;html=1;endArrow=none;endFill=0;" parent="VXFz6mvKQ9PJlcC3uVo2-1" source="VXFz6mvKQ9PJlcC3uVo2-161" target="VXFz6mvKQ9PJlcC3uVo2-175" edge="1">
          <mxGeometry relative="1" as="geometry">
            <mxPoint x="2177" y="915.5" as="sourcePoint" />
            <mxPoint x="2120" y="945.5" as="targetPoint" />
          </mxGeometry>
        </mxCell>
        <UserObject label="&lt;font color=&quot;#999999&quot;&gt;L68_&lt;/font&gt;Respectvolle toon naar medestudenten en docenten" id="VXFz6mvKQ9PJlcC3uVo2-179">
          <mxCell style="ellipse;whiteSpace=wrap;html=1;" parent="VXFz6mvKQ9PJlcC3uVo2-1" vertex="1">
            <mxGeometry x="2355.63" y="953.5" width="148.75" height="70.75" as="geometry" />
          </mxCell>
        </UserObject>
        <UserObject label="&lt;font color=&quot;#999999&quot;&gt;L69_&lt;/font&gt;Aan afspraken houden" id="VXFz6mvKQ9PJlcC3uVo2-180">
          <mxCell style="ellipse;whiteSpace=wrap;html=1;" parent="VXFz6mvKQ9PJlcC3uVo2-1" vertex="1">
            <mxGeometry x="2217.75" y="966.5" width="94.5" height="49.75" as="geometry" />
          </mxCell>
        </UserObject>
        <mxCell id="VXFz6mvKQ9PJlcC3uVo2-181" style="rounded=0;orthogonalLoop=1;jettySize=auto;html=1;endArrow=none;endFill=0;" parent="VXFz6mvKQ9PJlcC3uVo2-1" source="VXFz6mvKQ9PJlcC3uVo2-177" target="VXFz6mvKQ9PJlcC3uVo2-180" edge="1">
          <mxGeometry relative="1" as="geometry">
            <mxPoint x="2253" y="884.5" as="sourcePoint" />
            <mxPoint x="2216" y="894.5" as="targetPoint" />
          </mxGeometry>
        </mxCell>
        <mxCell id="VXFz6mvKQ9PJlcC3uVo2-182" style="rounded=0;orthogonalLoop=1;jettySize=auto;html=1;endArrow=none;endFill=0;" parent="VXFz6mvKQ9PJlcC3uVo2-1" source="VXFz6mvKQ9PJlcC3uVo2-177" target="VXFz6mvKQ9PJlcC3uVo2-179" edge="1">
          <mxGeometry relative="1" as="geometry">
            <mxPoint x="2306" y="971.5" as="sourcePoint" />
            <mxPoint x="2305" y="995.5" as="targetPoint" />
          </mxGeometry>
        </mxCell>
        <mxCell id="VXFz6mvKQ9PJlcC3uVo2-183" style="rounded=0;orthogonalLoop=1;jettySize=auto;html=1;endArrow=none;endFill=0;" parent="VXFz6mvKQ9PJlcC3uVo2-1" source="VXFz6mvKQ9PJlcC3uVo2-166" target="VXFz6mvKQ9PJlcC3uVo2-177" edge="1">
          <mxGeometry relative="1" as="geometry">
            <mxPoint x="2357" y="965.5" as="sourcePoint" />
            <mxPoint x="2392" y="978.5" as="targetPoint" />
          </mxGeometry>
        </mxCell>
        <UserObject label="&lt;font color=&quot;#999999&quot;&gt;L40_&lt;/font&gt;Templates" id="VXFz6mvKQ9PJlcC3uVo2-184">
          <mxCell style="ellipse;whiteSpace=wrap;html=1;" parent="VXFz6mvKQ9PJlcC3uVo2-1" vertex="1">
            <mxGeometry x="2095" y="622.5" width="90" height="40" as="geometry" />
          </mxCell>
        </UserObject>
        <mxCell id="VXFz6mvKQ9PJlcC3uVo2-185" style="rounded=0;orthogonalLoop=1;jettySize=auto;html=1;endArrow=none;endFill=0;" parent="VXFz6mvKQ9PJlcC3uVo2-1" source="VXFz6mvKQ9PJlcC3uVo2-184" target="VXFz6mvKQ9PJlcC3uVo2-24" edge="1">
          <mxGeometry relative="1" as="geometry">
            <mxPoint x="2069" y="633" as="sourcePoint" />
            <mxPoint x="2085" y="593" as="targetPoint" />
          </mxGeometry>
        </mxCell>
        <UserObject label="&lt;font color=&quot;#999999&quot;&gt;L56_&lt;/font&gt;Python" id="VXFz6mvKQ9PJlcC3uVo2-186">
          <mxCell style="ellipse;whiteSpace=wrap;html=1;strokeWidth=1;" parent="VXFz6mvKQ9PJlcC3uVo2-1" vertex="1">
            <mxGeometry x="2511.5" y="566" width="70" height="25" as="geometry" />
          </mxCell>
        </UserObject>
        <mxCell id="VXFz6mvKQ9PJlcC3uVo2-187" style="rounded=0;orthogonalLoop=1;jettySize=auto;html=1;endArrow=none;endFill=0;" parent="VXFz6mvKQ9PJlcC3uVo2-1" source="VXFz6mvKQ9PJlcC3uVo2-186" target="VXFz6mvKQ9PJlcC3uVo2-62" edge="1">
          <mxGeometry relative="1" as="geometry">
            <mxPoint x="2581" y="640" as="sourcePoint" />
            <mxPoint x="2691" y="590" as="targetPoint" />
          </mxGeometry>
        </mxCell>
        <UserObject label="&lt;font color=&quot;#999999&quot;&gt;L70_&lt;/font&gt;Clean Coding" id="k4e6b6dZ_VluAHgRJG0G-0">
          <mxCell style="ellipse;whiteSpace=wrap;html=1;dashed=1;dashPattern=1 1;" parent="VXFz6mvKQ9PJlcC3uVo2-1" vertex="1">
            <mxGeometry x="2068" y="359" width="162" height="70" as="geometry" />
          </mxCell>
        </UserObject>
        <mxCell id="k4e6b6dZ_VluAHgRJG0G-1" style="rounded=0;orthogonalLoop=1;jettySize=auto;html=1;endArrow=none;endFill=0;" parent="VXFz6mvKQ9PJlcC3uVo2-1" source="VXFz6mvKQ9PJlcC3uVo2-35" target="k4e6b6dZ_VluAHgRJG0G-0" edge="1">
          <mxGeometry relative="1" as="geometry">
            <mxPoint x="2283" y="481" as="sourcePoint" />
            <mxPoint x="2252" y="459" as="targetPoint" />
          </mxGeometry>
        </mxCell>
        <mxCell id="k4e6b6dZ_VluAHgRJG0G-4" value="&lt;font style=&quot;font-size: 21px;&quot;&gt;Legenda&lt;/font&gt;" style="text;html=1;strokeColor=none;fillColor=none;align=center;verticalAlign=middle;whiteSpace=wrap;rounded=0;fontSize=25;fontStyle=0" parent="VXFz6mvKQ9PJlcC3uVo2-1" vertex="1">
          <mxGeometry x="2619.75" y="71" width="90" height="32" as="geometry" />
        </mxCell>
        <mxCell id="k4e6b6dZ_VluAHgRJG0G-6" value="Dit onderwerp is nog niet aangeraakt" style="ellipse;whiteSpace=wrap;html=1;" parent="VXFz6mvKQ9PJlcC3uVo2-1" vertex="1">
          <mxGeometry x="2599.25" y="167" width="131" height="42" as="geometry" />
        </mxCell>
        <mxCell id="k4e6b6dZ_VluAHgRJG0G-7" value="Je bent goed op weg" style="ellipse;whiteSpace=wrap;html=1;fillColor=#FFFF00;" parent="VXFz6mvKQ9PJlcC3uVo2-1" vertex="1">
          <mxGeometry x="2596.62" y="217" width="131" height="42" as="geometry" />
        </mxCell>
        <mxCell id="k4e6b6dZ_VluAHgRJG0G-8" value="Je hebt dit onderwerp aardig onder de knie" style="ellipse;whiteSpace=wrap;html=1;fillColor=#00FF00;" parent="VXFz6mvKQ9PJlcC3uVo2-1" vertex="1">
          <mxGeometry x="2596.62" y="267" width="131" height="42" as="geometry" />
        </mxCell>
        <mxCell id="k4e6b6dZ_VluAHgRJG0G-9" value="Oei, er is op dit punt veel misgegaan" style="ellipse;whiteSpace=wrap;html=1;fillColor=#FF0000;" parent="VXFz6mvKQ9PJlcC3uVo2-1" vertex="1">
          <mxGeometry x="2599.25" y="116" width="131" height="42" as="geometry" />
        </mxCell>
        <mxCell id="k4e6b6dZ_VluAHgRJG0G-10" value="Je overtreft alle verwachtingen" style="ellipse;whiteSpace=wrap;html=1;fillColor=#00FFFF;" parent="VXFz6mvKQ9PJlcC3uVo2-1" vertex="1">
          <mxGeometry x="2599.25" y="323" width="131" height="42" as="geometry" />
        </mxCell>
        <UserObject label="&lt;font color=&quot;#999999&quot;&gt;L71_&lt;/font&gt;IR NEC protocol" id="k4e6b6dZ_VluAHgRJG0G-11">
          <mxCell style="ellipse;whiteSpace=wrap;html=1;" parent="VXFz6mvKQ9PJlcC3uVo2-1" vertex="1">
            <mxGeometry x="2206.25" y="430.5" width="87.75" height="44" as="geometry" />
          </mxCell>
        </UserObject>
        <mxCell id="k4e6b6dZ_VluAHgRJG0G-12" style="rounded=0;orthogonalLoop=1;jettySize=auto;html=1;endArrow=none;endFill=0;" parent="VXFz6mvKQ9PJlcC3uVo2-1" source="k4e6b6dZ_VluAHgRJG0G-11" target="VXFz6mvKQ9PJlcC3uVo2-35" edge="1">
          <mxGeometry relative="1" as="geometry">
            <mxPoint x="2325" y="496" as="sourcePoint" />
            <mxPoint x="2328" y="476" as="targetPoint" />
          </mxGeometry>
        </mxCell>
        <mxCell id="k4e6b6dZ_VluAHgRJG0G-13" style="rounded=0;orthogonalLoop=1;jettySize=auto;html=1;endArrow=none;endFill=0;" parent="VXFz6mvKQ9PJlcC3uVo2-1" source="k4e6b6dZ_VluAHgRJG0G-11" target="VXFz6mvKQ9PJlcC3uVo2-45" edge="1">
          <mxGeometry relative="1" as="geometry">
            <mxPoint x="2242" y="516" as="sourcePoint" />
            <mxPoint x="2250" y="497" as="targetPoint" />
          </mxGeometry>
        </mxCell>
        <mxCell id="k4e6b6dZ_VluAHgRJG0G-14" style="rounded=0;orthogonalLoop=1;jettySize=auto;html=1;endArrow=none;endFill=0;" parent="VXFz6mvKQ9PJlcC3uVo2-1" source="k4e6b6dZ_VluAHgRJG0G-11" target="k4e6b6dZ_VluAHgRJG0G-0" edge="1">
          <mxGeometry relative="1" as="geometry">
            <mxPoint x="2339" y="444" as="sourcePoint" />
            <mxPoint x="2333" y="421" as="targetPoint" />
          </mxGeometry>
        </mxCell>
      </root>
    </mxGraphModel>
  </diagram>
</mxfile>
